<?xml version="1.0" encoding="UTF-8"?>
<svg version="1.1" xmlns="http://www.w3.org/2000/svg" width="400" height="400">
<path d="M0 0 C3.96493908 2.86537264 5.2320572 6.16368281 6.97802734 10.65332031 C9.14899798 15.63835848 12.15088038 20.21624502 14.9375 24.875 C16.15749683 26.96856882 17.37498657 29.06360081 18.58984375 31.16015625 C21.97566678 36.97552974 25.43291444 42.74386983 28.9375 48.48828125 C31.20042032 52.27340623 33.28300582 56.15481489 35.38476562 60.03100586 C42.4103699 72.94490754 49.61111028 85.77248826 57.11157227 98.41674805 C60.8534788 104.72835239 64.52427293 111.07995305 68.1875 117.4375 C69.14342041 119.09616089 69.14342041 119.09616089 70.11865234 120.78833008 C72.0796138 124.1919253 74.03988215 127.59591889 76 131 C78.51995295 135.3755079 81.04084514 139.75047272 83.5625 144.125 C84.17617432 145.19032959 84.78984863 146.25565918 85.42211914 147.35327148 C88.55512206 152.78603625 91.70353167 158.20906526 94.87890625 163.6171875 C95.50788818 164.68952637 96.13687012 165.76186523 96.78491211 166.86669922 C97.9690454 168.88304083 99.15584504 170.89782019 100.34594727 172.91064453 C101.92164594 175.59397986 103.46643252 178.29240476 105 181 C105.52045898 181.88945312 106.04091797 182.77890625 106.57714844 183.6953125 C110.11794928 190.10270362 110.11794928 190.10270362 109.58203125 194.1796875 C108.79892578 195.57574219 108.79892578 195.57574219 108 197 C107.68724121 197.56235352 107.37448242 198.12470703 107.05224609 198.70410156 C105.9861801 200.5520827 104.85077513 202.33682501 103.6875 204.125 C103.30916016 204.73214844 102.93082031 205.33929688 102.54101562 205.96484375 C99.85856918 210.13148645 97.01970898 214.27366848 91.9375 215.49609375 C91.298125 215.47675781 90.65875 215.45742188 90 215.4375 C89.0409375 215.43556641 89.0409375 215.43556641 88.0625 215.43359375 C81.91676044 214.14159168 79.10633827 209.80633953 75.82080078 204.90332031 C72.64671787 199.84215191 69.78499475 194.62491378 66.9375 189.375 C65.61858703 186.96784156 64.29425402 184.56369055 62.96875 182.16015625 C62.63648911 181.55699081 62.30422821 180.95382538 61.9618988 180.3323822 C57.05074291 171.44013474 51.87909371 162.69835547 46.72949219 153.94287109 C43.83024448 149.0095662 40.94603129 144.06750291 38.0625 139.125 C37.48894775 138.14208984 36.91539551 137.15917969 36.32446289 136.14648438 C25.99709828 118.43337582 15.78256034 100.65530683 5.62353516 82.84521484 C2.83979379 77.96676043 0.05229873 73.09045066 -2.73477173 68.21389771 C-4.4274925 65.25205614 -6.1199845 62.29008386 -7.8125 59.328125 C-8.50260307 58.12044208 -9.19270724 56.91275979 -9.8828125 55.70507812 C-24.671875 29.82421875 -24.671875 29.82421875 -26.43139648 26.73754883 C-27.38043776 25.0812687 -28.33632282 23.42884897 -29.30493164 21.78393555 C-31.66891146 17.76098536 -32.91392279 14.7342465 -33 10 C-31.60072209 5.80216626 -29.76355827 3.25176973 -26.0090332 0.86645508 C-18.50639131 -2.36928147 -7.82383501 -1.74538548 0 0 Z " fill="#FB6526" transform="translate(111,92)"/>
<path d="M0 0 C5.58648547 -0.22307809 11.17036351 -0.38605356 16.76025391 -0.49438477 C18.65980187 -0.53955043 20.55903854 -0.60090169 22.45751953 -0.67895508 C38.12336504 -1.30673778 38.12336504 -1.30673778 42.40136719 1.67211914 C44.01697835 4.04942827 44.99027786 6.31246701 46 9 C46.95541122 10.70235403 47.93556094 12.39101437 48.9375 14.06640625 C49.96134316 15.89675714 50.98204114 17.72887 52 19.5625 C56.56478903 27.71593477 61.20540199 35.81755422 65.9375 43.875 C70.72148965 52.03127759 75.40096469 60.23806741 80 68.5 C88.78678091 84.27494618 97.78487039 99.92552218 107.33203125 115.25390625 C109.55414845 118.9123334 111.60337923 122.649157 113.609375 126.4296875 C114.5374384 128.14504064 115.50684728 129.83864936 116.515625 131.5078125 C116.98484375 132.28898438 117.4540625 133.07015625 117.9375 133.875 C118.56978516 134.89207031 118.56978516 134.89207031 119.21484375 135.9296875 C120.26528545 138.69950889 119.7660408 140.15163389 119 143 C117.77246094 145.46020508 117.77246094 145.46020508 116.234375 148.01953125 C115.67363281 148.95990234 115.11289063 149.90027344 114.53515625 150.86914062 C113.94605469 151.84044922 113.35695313 152.81175781 112.75 153.8125 C111.88955078 155.25206055 111.88955078 155.25206055 111.01171875 156.72070312 C107.7360476 162.1863731 104.39491494 167.6077009 101 173 C99.18945312 172.78808594 99.18945312 172.78808594 97 172 C95.45117188 170.01660156 95.45117188 170.01660156 93.96875 167.390625 C93.411875 166.41931641 92.855 165.44800781 92.28125 164.44726562 C91.6934375 163.39216797 91.105625 162.33707031 90.5 161.25 C89.88125 160.16396484 89.2625 159.07792969 88.625 157.95898438 C86.73920187 154.64531246 84.86950026 151.32288594 83 148 C81.48524219 145.33898902 79.96517985 142.68107759 78.4440918 140.02368164 C77.47258089 138.32587804 76.50271976 136.62712946 75.53442383 134.92749023 C71.79404691 128.36444284 68.00002763 121.83385902 64.1875 115.3125 C57.37642018 103.66189447 50.62726331 91.97628026 43.89111328 80.28222656 C40.14135226 73.77412081 36.38687124 67.26873565 32.63183594 60.76367188 C29.46411293 55.27515754 26.30052284 49.78433215 23.14453125 44.2890625 C21.8672699 42.06766095 20.58992698 39.84630631 19.3125 37.625 C18.69689209 36.5522583 18.08128418 35.4795166 17.44702148 34.37426758 C14.49087364 29.24155917 11.49596701 24.14171588 8.390625 19.09765625 C7.82819092 18.18097168 7.26575684 17.26428711 6.6862793 16.31982422 C5.63526318 14.6160119 4.5748065 12.91797204 3.50317383 11.22705078 C2.80744263 10.09952393 2.80744263 10.09952393 2.09765625 8.94921875 C1.48676147 7.97988403 1.48676147 7.97988403 0.86352539 6.9909668 C-0.19420792 4.55222913 -0.15306125 2.63054424 0 0 Z " fill="#F96426" transform="translate(131,92)"/>
<path d="M0 0 C1.03769531 -0.02900391 2.07539063 -0.05800781 3.14453125 -0.08789062 C9.35139047 -0.13941628 13.05387635 0.11678297 17.75 4.3125 C19.8136564 6.92646478 20.64263308 8.73540281 21.25 12 C20.25235324 18.60940975 16.44795489 24.17197671 13.0390625 29.8203125 C9.68680218 35.38166602 6.46850963 41.0153363 3.26013184 46.66061401 C-2.2708412 56.38994649 -7.84661082 66.09113458 -13.5 75.75 C-19.37377221 85.78705944 -25.16626891 95.86821927 -30.91894531 105.97509766 C-32.94184658 109.52741914 -34.97092995 113.07619977 -37 116.625 C-37.63421875 117.73488281 -38.2684375 118.84476562 -38.921875 119.98828125 C-39.36015625 120.75527344 -39.7984375 121.52226562 -40.25 122.3125 C-42.09375 122.078125 -42.09375 122.078125 -44.25 121.3125 C-45.53125 119.546875 -45.53125 119.546875 -46.75 117.0625 C-48.82304892 112.98101667 -50.99258805 109.01796008 -53.33984375 105.0859375 C-53.88898438 104.15813477 -54.438125 103.23033203 -55.00390625 102.27441406 C-56.11751391 100.39794639 -57.24108499 98.52735246 -58.375 96.66308594 C-58.88933594 95.7868457 -59.40367187 94.91060547 -59.93359375 94.0078125 C-60.40337646 93.22422363 -60.87315918 92.44063477 -61.35717773 91.63330078 C-62.49730828 88.66964724 -62.23101567 87.31556816 -61.25 84.3125 C-60.30994417 82.42876942 -59.29232263 80.58280445 -58.22265625 78.76953125 C-57.28981812 77.17347046 -57.28981812 77.17347046 -56.33813477 75.54516602 C-55.66967529 74.41651123 -55.00121582 73.28785645 -54.3125 72.125 C-52.92410932 69.75694417 -51.54044965 67.38613234 -50.15625 65.015625 C-49.81400894 64.43116104 -49.47176788 63.84669708 -49.11915588 63.24452209 C-46.43965198 58.66199019 -43.85571324 54.03404692 -41.3125 49.375 C-35.21544321 38.26477851 -28.65991038 27.41666588 -22.15869141 16.54003906 C-19.62045216 12.24795378 -17.15541334 7.9147456 -14.7019043 3.57373047 C-11.5032338 -1.40795544 -5.34499157 0.04906663 0 0 Z " fill="#FB6526" transform="translate(302.25,91.6875)"/>
<path d="M0 0 C0.88218201 0.00707474 1.76436401 0.01414948 2.67327881 0.0214386 C5.48617981 0.04938947 8.29707752 0.11212744 11.109375 0.17578125 C13.01820038 0.20086331 14.92705702 0.22367664 16.8359375 0.24414062 C21.51118652 0.29921826 26.18494133 0.38549431 30.859375 0.48828125 C30.2088627 6.06126522 28.87600302 9.68642672 25.671875 14.23828125 C22.25597814 19.20044467 19.27578853 24.27994535 16.42358398 29.58837891 C13.29838828 35.38220981 10.02202057 41.0924731 6.77197266 46.81689453 C4.27365829 51.21766709 1.7783333 55.61826907 -0.65625 60.0546875 C-1.01928223 60.70977295 -1.38231445 61.3648584 -1.75634766 62.03979492 C-2.69493682 63.73556717 -3.62515788 65.43596367 -4.5546875 67.13671875 C-6.140625 69.48828125 -6.140625 69.48828125 -9.140625 70.48828125 C-11.63894141 68.20481454 -13.22303475 65.85974121 -14.8828125 62.91796875 C-15.64658203 61.5721875 -15.64658203 61.5721875 -16.42578125 60.19921875 C-16.95042969 59.26335937 -17.47507813 58.3275 -18.015625 57.36328125 C-18.53253906 56.450625 -19.04945313 55.53796875 -19.58203125 54.59765625 C-20.6103232 52.7793667 -21.63221669 50.95744278 -22.64746094 49.13183594 C-23.62723084 47.39721388 -24.63506223 45.67808487 -25.67285156 43.97753906 C-26.13916992 43.19991211 -26.60548828 42.42228516 -27.0859375 41.62109375 C-27.50633301 40.94191895 -27.92672852 40.26274414 -28.35986328 39.56298828 C-29.41889202 36.74884626 -29.04363215 35.34722895 -28.140625 32.48828125 C-27.12758338 30.38212527 -26.03957614 28.31130715 -24.90234375 26.26953125 C-24.58030472 25.68917114 -24.25826569 25.10881104 -23.9264679 24.51086426 C-23.24631589 23.28878657 -22.56283344 22.06855717 -21.8762207 20.85009766 C-20.83389606 18.99853285 -19.80391239 17.14051034 -18.77539062 15.28125 C-15.05952587 8.62459373 -15.05952587 8.62459373 -13.140625 5.48828125 C-12.59414307 4.54509033 -12.04766113 3.60189941 -11.48461914 2.63012695 C-7.91956724 -0.62747125 -4.66412248 -0.14089136 0 0 Z " fill="#F76427" transform="translate(239.140625,91.51171875)"/>
<path d="M0 0 C1.03769531 -0.02900391 2.07539063 -0.05800781 3.14453125 -0.08789062 C9.35139047 -0.13941628 13.05387635 0.11678297 17.75 4.3125 C19.8136564 6.92646478 20.64263308 8.73540281 21.25 12 C19.96938074 20.48410261 13.79868544 31.26381456 7.75 37.3125 C8.08 35.0025 8.41 32.6925 8.75 30.3125 C9.41 30.3125 10.07 30.3125 10.75 30.3125 C10.688125 29.549375 10.62625 28.78625 10.5625 28 C10.78512091 24.80910032 11.43302438 24.35143855 13.75 22.3125 C14.245 20.8275 14.245 20.8275 14.75 19.3125 C15.41 19.3125 16.07 19.3125 16.75 19.3125 C17.08 17.3325 17.41 15.3525 17.75 13.3125 C17.09 13.3125 16.43 13.3125 15.75 13.3125 C15.75 10.6725 15.75 8.0325 15.75 5.3125 C14.76 5.3125 13.77 5.3125 12.75 5.3125 C13.245 6.7975 13.245 6.7975 13.75 8.3125 C13.09 8.3125 12.43 8.3125 11.75 8.3125 C11.75 7.3225 11.75 6.3325 11.75 5.3125 C9.02498092 4.40416031 7.12766029 4.12890015 4.30078125 3.99609375 C3.45322266 3.95419922 2.60566406 3.91230469 1.73242188 3.86914062 C0.85134766 3.82982422 -0.02972656 3.79050781 -0.9375 3.75 C-1.83017578 3.70681641 -2.72285156 3.66363281 -3.64257812 3.61914062 C-5.84490108 3.51314647 -8.04733473 3.41107949 -10.25 3.3125 C-10.3428125 4.42625 -10.3428125 4.42625 -10.4375 5.5625 C-11.4995052 9.15697912 -13.35475065 10.01281996 -16.25 12.3125 C-17.79339747 15.21028253 -17.79339747 15.21028253 -18.875 18.375 C-21.39608123 25.21914334 -21.39608123 25.21914334 -24.25 27.3125 C-25.24 27.3125 -26.23 27.3125 -27.25 27.3125 C-25.13576271 21.73520186 -22.20586863 16.72829871 -19.25 11.5625 C-18.7034375 10.59183594 -18.156875 9.62117188 -17.59375 8.62109375 C-17.0678125 7.69941406 -16.541875 6.77773437 -16 5.828125 C-15.52046875 4.98540039 -15.0409375 4.14267578 -14.546875 3.27441406 C-11.45350242 -1.4052437 -5.03225094 0.04619569 0 0 Z " fill="#B55532" transform="translate(302.25,91.6875)"/>
<path d="M0 0 C13.2 0 26.4 0 40 0 C39.11721004 6.17952973 38.17554904 8.95879751 34.8125 13.75 C33.98920169 14.97325614 33.16891183 16.19854217 32.3515625 17.42578125 C31.94969727 18.02729004 31.54783203 18.62879883 31.13378906 19.24853516 C28.48345416 23.3427433 26.28404045 27.69572925 24 32 C22.68447926 34.34416781 21.34480434 36.67245403 20 39 C19.67 39 19.34 39 19 39 C19 36.69 19 34.38 19 32 C19.99 31.67 20.98 31.34 22 31 C22.33 28.69 22.66 26.38 23 24 C23.99 24 24.98 24 26 24 C26 22.02 26 20.04 26 18 C27.98 17.34 29.96 16.68 32 16 C32 14.68 32 13.36 32 12 C32.66 11.67 33.32 11.34 34 11 C34.66 8.36 35.32 5.72 36 3 C24.45 3 12.9 3 1 3 C0.67 2.01 0.34 1.02 0 0 Z " fill="#9C3D20" transform="translate(230,92)"/>
<path d="M0 0 C0.33 0.66 0.66 1.32 1 2 C1.66 2 2.32 2 3 2 C3 2.66 3 3.32 3 4 C3.66 4 4.32 4 5 4 C5.99 6.64 6.98 9.28 8 12 C9.32 11.67 10.64 11.34 12 11 C12 14.63 12 18.26 12 22 C12.99 22.33 13.98 22.66 15 23 C16.68711423 24.6459651 18.3545622 26.31237149 20 28 C20.66 28.33 21.32 28.66 22 29 C21.67 29.99 21.34 30.98 21 32 C20.34 31.67 19.68 31.34 19 31 C19.44472656 31.97582031 19.88945313 32.95164063 20.34765625 33.95703125 C20.91977851 35.24196157 21.49136533 36.5271304 22.0625 37.8125 C22.35705078 38.45509766 22.65160156 39.09769531 22.95507812 39.75976562 C25.11328125 44.66015625 25.11328125 44.66015625 24 48 C23.63874023 47.35264893 23.27748047 46.70529785 22.90527344 46.03833008 C14.68342233 31.31249095 6.40036404 16.62484256 -2 2 C-1.34 1.34 -0.68 0.68 0 0 Z " fill="#D65E32" transform="translate(105,149)"/>
<path d="M0 0 C2.1892074 1.86082629 3.73389911 3.95871421 5.25 6.375 C5.78367188 7.22191406 5.78367188 7.22191406 6.328125 8.0859375 C7.25853684 10.73652938 6.71764832 12.29533839 6 15 C4.77246094 17.46020508 4.77246094 17.46020508 3.234375 20.01953125 C2.67363281 20.95990234 2.11289063 21.90027344 1.53515625 22.86914062 C0.94605469 23.84044922 0.35695312 24.81175781 -0.25 25.8125 C-0.82363281 26.77220703 -1.39726562 27.73191406 -1.98828125 28.72070312 C-5.2639524 34.1863731 -8.60508506 39.6077009 -12 45 C-13.921875 44.66015625 -13.921875 44.66015625 -16 44 C-17.25 41.4375 -17.25 41.4375 -18 39 C-14.535 38.505 -14.535 38.505 -11 38 C-10.80664062 37.43410156 -10.61328125 36.86820312 -10.4140625 36.28515625 C-10.15367187 35.55167969 -9.89328125 34.81820312 -9.625 34.0625 C-9.36976563 33.33160156 -9.11453125 32.60070312 -8.8515625 31.84765625 C-8 30 -8 30 -6 29 C-5.34786708 26.97536745 -5.34786708 26.97536745 -5 25 C-4.34 25 -3.68 25 -3 25 C-2.67 23.68 -2.34 22.36 -2 21 C-1.34 21 -0.68 21 0 21 C0 19.35 0 17.7 0 16 C1.32 15.67 2.64 15.34 4 15 C4 12.36 4 9.72 4 7 C3.34 7 2.68 7 2 7 C0 4 0 4 0 0 Z " fill="#D26138" transform="translate(244,220)"/>
<path d="M0 0 C0.33 1.32 0.66 2.64 1 4 C0.01 4.33 -0.98 4.66 -2 5 C-1.71848913 6.31471568 -1.42446661 7.62675767 -1.125 8.9375 C-0.96257812 9.66839844 -0.80015625 10.39929688 -0.6328125 11.15234375 C-0.17038477 13.20700294 -0.17038477 13.20700294 2 14 C2.625 17.0625 2.625 17.0625 3 20 C3.66 20 4.32 20 5 20 C5.66 22.97 6.32 25.94 7 29 C8.32 28.67 9.64 28.34 11 28 C11.2475 29.19625 11.495 30.3925 11.75 31.625 C12.74663747 35.698214 14.5576687 38.58073618 17 42 C17 42.66 17 43.32 17 44 C17.66 44 18.32 44 19 44 C19.66 47.3 20.32 50.6 21 54 C18.21848555 51.21848555 16.76339389 49.05963891 14.890625 45.66015625 C14.30023438 44.59603516 13.70984375 43.53191406 13.1015625 42.43554688 C12.49054688 41.32244141 11.87953125 40.20933594 11.25 39.0625 C10.04797695 36.88610978 8.84485366 34.71032685 7.640625 32.53515625 C7.04556152 31.45782227 6.45049805 30.38048828 5.83740234 29.27050781 C3.42877352 24.98323812 0.91834569 20.75950059 -1.61376953 16.54418945 C-3.50231128 13.07809338 -4.15793061 10.9482652 -4 7 C-1.9375 1.9375 -1.9375 1.9375 0 0 Z " fill="#C55B39" transform="translate(82,95)"/>
<path d="M0 0 C2.80955262 2.5064055 4.47111394 5.29934448 6.328125 8.55859375 C7.28138672 10.22245117 7.28138672 10.22245117 8.25390625 11.91992188 C8.91944065 13.09235154 9.58480466 14.26487793 10.25 15.4375 C11.54659516 17.70719113 12.84346894 19.97672313 14.140625 22.24609375 C14.77548828 23.36226074 15.41035156 24.47842773 16.06445312 25.62841797 C17.37660144 27.914085 18.69843768 30.18855301 20.04492188 32.45361328 C21.00495117 34.07178955 21.00495117 34.07178955 21.984375 35.72265625 C22.56413086 36.69082275 23.14388672 37.65898926 23.74121094 38.65649414 C25 41 25 41 25 43 C23.515 42.505 23.515 42.505 22 42 C22 41.01 22 40.02 22 39 C21.01 39 20.02 39 19 39 C19 38.01 19 37.02 19 36 C17.68 35.67 16.36 35.34 15 35 C14.89042969 34.37351563 14.78085938 33.74703125 14.66796875 33.1015625 C14.50941406 32.28429687 14.35085937 31.46703125 14.1875 30.625 C14.03667969 29.81289062 13.88585937 29.00078125 13.73046875 28.1640625 C13.12455058 25.64179359 13.12455058 25.64179359 10 24 C8.8125 20.375 8.8125 20.375 8 17 C7.34 17 6.68 17 6 17 C4.5783681 13.6828589 3.60990891 10.55780196 3 7 C2.34 7 1.68 7 1 7 C0.67 4.69 0.34 2.38 0 0 Z " fill="#AB4F2A" transform="translate(161,180)"/>
<path d="M0 0 C4.83092224 2.47739602 4.83092224 2.47739602 5.6875 5.125 C5.790625 5.74375 5.89375 6.3625 6 7 C6.66 7.33 7.32 7.66 8 8 C8 9.32 8 10.64 8 12 C10.31 12.33 12.62 12.66 15 13 C15.79953138 16.28696233 16.09658936 17.71023192 15 21 C15.66 21 16.32 21 17 21 C17.33 22.98 17.66 24.96 18 27 C18.99 27 19.98 27 21 27 C21 27.99 21 28.98 21 30 C16.31106458 29.25910761 14.81559193 26.82481946 12.08203125 23.15625 C0 4.84052533 0 4.84052533 0 0 Z " fill="#D45D2C" transform="translate(176,276)"/>
<path d="M0 0 C0.33 0.66 0.66 1.32 1 2 C0.15136719 3.92358398 0.15136719 3.92358398 -1.203125 6.24609375 C-1.68910156 7.08333984 -2.17507813 7.92058594 -2.67578125 8.78320312 C-3.19527344 9.65912109 -3.71476562 10.53503906 -4.25 11.4375 C-4.75402344 12.30955078 -5.25804687 13.18160156 -5.77734375 14.08007812 C-10.26063169 21.73461567 -10.26063169 21.73461567 -13 24 C-15.6875 24.1875 -15.6875 24.1875 -18 24 C-18 22.68 -18 21.36 -18 20 C-18.66 19.67 -19.32 19.34 -20 19 C-20.144375 18.34 -20.28875 17.68 -20.4375 17 C-20.623125 16.34 -20.80875 15.68 -21 15 C-21.99 14.67 -22.98 14.34 -24 14 C-22.68 13.67 -21.36 13.34 -20 13 C-19.01 14.485 -19.01 14.485 -18 16 C-17.34 15.67 -16.68 15.34 -16 15 C-13.98072489 15.60578253 -11.97746603 16.26919734 -10 17 C-9.67 15.68 -9.34 14.36 -9 13 C-8.34 13 -7.68 13 -7 13 C-7.04125 12.071875 -7.0825 11.14375 -7.125 10.1875 C-7 7 -7 7 -5 4 C-4.34 4 -3.68 4 -3 4 C-3.33 3.01 -3.66 2.02 -4 1 C-2.68 0.67 -1.36 0.34 0 0 Z " fill="#EF6A34" transform="translate(276,186)"/>
<path d="M0 0 C7.92 0 15.84 0 24 0 C24 0.33 24 0.66 24 1 C14.1 1.495 14.1 1.495 4 2 C3.01 3.98 2.02 5.96 1 8 C-0.2065625 9.11375 -0.2065625 9.11375 -1.4375 10.25 C-4.47615848 13.51099934 -5.57637689 16.52768139 -7.0078125 20.6953125 C-8.04665158 23.10836392 -8.91596257 24.41364315 -11 26 C-11.99 26 -12.98 26 -14 26 C-12.65788025 22.444218 -11.07755303 19.20894833 -9.1796875 15.91796875 C-8.69741699 15.0777417 -8.21514648 14.23751465 -7.71826172 13.37182617 C-7.10998535 12.32099854 -6.50170898 11.2701709 -5.875 10.1875 C-3.93625 6.825625 -1.9975 3.46375 0 0 Z " fill="#C55F3B" transform="translate(289,93)"/>
<path d="M0 0 C4.1878844 4.76727617 7.13645904 10.19411135 10.25 15.6875 C11.08144531 17.13092773 11.08144531 17.13092773 11.9296875 18.60351562 C12.45304688 19.52197266 12.97640625 20.44042969 13.515625 21.38671875 C13.99290039 22.22420654 14.47017578 23.06169434 14.96191406 23.92456055 C16 26 16 26 16 28 C15.01 28 14.02 28 13 28 C12.34 27.01 11.68 26.02 11 25 C10.01 24.67 9.02 24.34 8 24 C7.690625 23.01 7.38125 22.02 7.0625 21 C6.711875 20.01 6.36125 19.02 6 18 C4.68 17.67 3.36 17.34 2 17 C2 12.71 2 8.42 2 4 C1.34 4 0.68 4 0 4 C0 2.68 0 1.36 0 0 Z " fill="#DC6130" transform="translate(186,223)"/>
<path d="M0 0 C2.54099028 3.14598797 4.55902442 6.20795901 6 10 C4.81512273 14.96519998 2.43487876 18.90175662 -0.3125 23.125 C-0.69083984 23.73214844 -1.06917969 24.33929688 -1.45898438 24.96484375 C-3.86000443 28.69434699 -6.20012129 31.56663919 -10 34 C-12.80034725 34.4887168 -15.12964638 34.19460025 -18 34 C-18 33.67 -18 33.34 -18 33 C-15.69 33 -13.38 33 -11 33 C-10.67 32.01 -10.34 31.02 -10 30 C-9.01 30 -8.02 30 -7 30 C-6.87625 29.195625 -6.7525 28.39125 -6.625 27.5625 C-6.41875 26.716875 -6.2125 25.87125 -6 25 C-5.34 24.67 -4.68 24.34 -4 24 C-3.34786708 21.97536745 -3.34786708 21.97536745 -3 20 C-2.34 20 -1.68 20 -1 20 C-1 19.01 -1 18.02 -1 17 C-0.34 17 0.32 17 1 17 C1.76522801 13.64541845 1.76522801 13.64541845 2 10 C0.79081118 8.12359581 0.79081118 8.12359581 -1 7 C-1.66 6.34 -2.32 5.68 -3 5 C-2.34 5 -1.68 5 -1 5 C-0.67 3.35 -0.34 1.7 0 0 Z " fill="#A65030" transform="translate(215,273)"/>
<path d="M0 0 C0.33 0 0.66 0 1 0 C0.55946901 5.50663732 -0.82458846 8.53457752 -4 13 C-4.34227417 14.33106622 -4.67751743 15.66400079 -5 17 C-5.66322266 17.60908203 -5.66322266 17.60908203 -6.33984375 18.23046875 C-9.29497123 21.38028699 -10.70871417 25.49236358 -12.5 29.3828125 C-14 32 -14 32 -17 33 C-17 33.66 -17 34.32 -17 35 C-17.66 35 -18.32 35 -19 35 C-17.54639108 30.0500791 -15.43153212 25.87574358 -12.875 21.4375 C-12.48119141 20.7465625 -12.08738281 20.055625 -11.68164062 19.34375 C-4.04805164 6.03077081 -4.04805164 6.03077081 0 0 Z " fill="#B35A35" transform="translate(274,119)"/>
<path d="M0 0 C0.99 0.33 1.98 0.66 3 1 C0.8544937 6.76017484 -2.26655233 11.90571201 -5.33984375 17.2109375 C-6.37016438 18.99164259 -7.39240583 20.77681327 -8.4140625 22.5625 C-9.39632813 24.2640625 -9.39632813 24.2640625 -10.3984375 26 C-10.99317871 27.03125 -11.58791992 28.0625 -12.20068359 29.125 C-13.95896219 31.9344286 -15.87715036 34.45842046 -18 37 C-18.08226668 33.95613276 -17.97608217 31.92824652 -17 29 C-16.34 29 -15.68 29 -15 29 C-13.515 23.555 -13.515 23.555 -12 18 C-10.68 18 -9.36 18 -8 18 C-7.81824219 17.31292969 -7.63648438 16.62585938 -7.44921875 15.91796875 C-7.19785156 15.01691406 -6.94648438 14.11585938 -6.6875 13.1875 C-6.44386719 12.29417969 -6.20023437 11.40085938 -5.94921875 10.48046875 C-4.97135245 7.92513913 -4.14907383 6.66290803 -2 5 C-1.34 5 -0.68 5 0 5 C0 3.35 0 1.7 0 0 Z " fill="#BE5933" transform="translate(296,147)"/>
<path d="M0 0 C2.97 0.495 2.97 0.495 6 1 C6.67031719 2.9570868 7.33614683 4.91571113 8 6.875 C8.556875 8.51082031 8.556875 8.51082031 9.125 10.1796875 C10 13 10 13 10 15 C10.99 15.33 11.98 15.66 13 16 C13.33 19.3 13.66 22.6 14 26 C10.39111781 21.75872023 7.57201635 17.21605966 4.75 12.4375 C4.06164062 11.30538086 4.06164062 11.30538086 3.359375 10.15039062 C2.7096875 9.05307617 2.7096875 9.05307617 2.046875 7.93359375 C1.65338867 7.27415771 1.25990234 6.61472168 0.85449219 5.93530273 C0 4 0 4 0 0 Z " fill="#E96B38" transform="translate(144,219)"/>
<path d="M0 0 C1.34191406 -0.01836914 1.34191406 -0.01836914 2.7109375 -0.03710938 C7.63283229 -0.04799852 11.63354285 0.25378533 16.25 2.1875 C16.25 2.8475 16.25 3.5075 16.25 4.1875 C7.67 4.1875 -0.91 4.1875 -9.75 4.1875 C-9.75 5.1775 -9.75 6.1675 -9.75 7.1875 C-10.41 7.1875 -11.07 7.1875 -11.75 7.1875 C-11.75 7.8475 -11.75 8.5075 -11.75 9.1875 C-12.74 9.1875 -13.73 9.1875 -14.75 9.1875 C-14.75 8.5275 -14.75 7.8675 -14.75 7.1875 C-14.09 6.8575 -13.43 6.5275 -12.75 6.1875 C-12.585 5.3625 -12.42 4.5375 -12.25 3.6875 C-12.085 2.8625 -11.92 2.0375 -11.75 1.1875 C-8.15435765 -0.61032118 -3.95885142 0.00280372 0 0 Z " fill="#EE6B38" transform="translate(94.75,92.8125)"/>
<path d="M0 0 C13.2 0 26.4 0 40 0 C40 0.33 40 0.66 40 1 C27.79 1.33 15.58 1.66 3 2 C3.33 3.98 3.66 5.96 4 8 C5.93383287 9.30065921 5.93383287 9.30065921 8 10 C9.35439668 12.70879335 9.06501451 15.00933268 9 18 C6.4260504 15.63474901 4.64217477 13.09765678 2.8125 10.125 C2.01779297 8.86042969 2.01779297 8.86042969 1.20703125 7.5703125 C0 5 0 5 0 0 Z " fill="#6A2214" transform="translate(131,92)"/>
<path d="M0 0 C0.33 0.66 0.66 1.32 1 2 C-0.22265625 4.21484375 -0.22265625 4.21484375 -2.0625 6.9375 C-5.17708677 11.67142371 -7.97193318 16.47855207 -10.64453125 21.47265625 C-12.3678224 24.68582448 -14.17603935 27.84314504 -16 31 C-16.33 31 -16.66 31 -17 31 C-17 28.69 -17 26.38 -17 24 C-16.01 23.67 -15.02 23.34 -14 23 C-13.67 20.69 -13.34 18.38 -13 16 C-12.01 16 -11.02 16 -10 16 C-10 14.02 -10 12.04 -10 10 C-8.02 9.34 -6.04 8.68 -4 8 C-4 6.68 -4 5.36 -4 4 C-2 1.75 -2 1.75 0 0 Z " fill="#C95A30" transform="translate(266,100)"/>
<path d="M0 0 C0.7425 0.78375 1.485 1.5675 2.25 2.375 C4.54433318 4.56504531 6.12158858 5.82731386 9 7 C8.67 7.99 8.34 8.98 8 10 C7.34 9.67 6.68 9.34 6 9 C6.66708984 10.46373047 6.66708984 10.46373047 7.34765625 11.95703125 C7.91977851 13.24196157 8.49136533 14.5271304 9.0625 15.8125 C9.35705078 16.45509766 9.65160156 17.09769531 9.95507812 17.75976562 C12.11328125 22.66015625 12.11328125 22.66015625 11 26 C8.95540103 22.61794651 6.94370551 19.21744543 4.9375 15.8125 C4.35677734 14.85279297 3.77605469 13.89308594 3.17773438 12.90429688 C2.36079102 11.50727539 2.36079102 11.50727539 1.52734375 10.08203125 C1.01937256 9.22843018 0.51140137 8.3748291 -0.01196289 7.49536133 C-1.18314275 4.53745933 -0.90512695 3.00220029 0 0 Z " fill="#D76030" transform="translate(118,171)"/>
<path d="M0 0 C1.5 1.375 1.5 1.375 3 3 C3 3.66 3 4.32 3 5 C2.34 5 1.68 5 1 5 C0.731875 5.58910156 0.46375 6.17820312 0.1875 6.78515625 C-1.0049644 9.00925927 -2.29350691 10.59022123 -4 12.4375 C-5.98219543 14.66387892 -7.02096159 16.0535685 -8.125 18.875 C-8.41375 19.57625 -8.7025 20.2775 -9 21 C-11.125 21.8125 -11.125 21.8125 -13 22 C-11.67285535 17.59808459 -9.94710063 13.83980938 -7.625 9.875 C-7.03976563 8.86179687 -6.45453125 7.84859375 -5.8515625 6.8046875 C-4.11120545 4.16845045 -2.31648975 2.13280334 0 0 Z " fill="#B1502E" transform="translate(228,97)"/>
<path d="M0 0 C0.72680969 0.00141495 1.45361938 0.0028299 2.20245361 0.00428772 C4.51521994 0.00986833 6.82788812 0.02241721 9.140625 0.03515625 C10.71223818 0.04017376 12.28385289 0.04473623 13.85546875 0.04882812 C17.70055843 0.0598314 21.5455751 0.07708264 25.390625 0.09765625 C25.885625 3.56265625 25.885625 3.56265625 26.390625 7.09765625 C25.9575 6.62328125 25.524375 6.14890625 25.078125 5.66015625 C21.6614717 2.49658838 17.74840339 2.90787849 13.31640625 2.78125 C12.6325737 2.7604689 11.94874115 2.73968781 11.2441864 2.71827698 C9.0639329 2.65299471 6.88356095 2.59399608 4.703125 2.53515625 C3.22329514 2.49195072 1.74347717 2.44833578 0.26367188 2.40429688 C-3.36055122 2.29733542 -6.98490689 2.19600802 -10.609375 2.09765625 C-10.939375 2.75765625 -11.269375 3.41765625 -11.609375 4.09765625 C-11.609375 3.10765625 -11.609375 2.11765625 -11.609375 1.09765625 C-7.78191777 -0.14240556 -3.97591908 -0.02926577 0 0 Z " fill="#E16D45" transform="translate(145.609375,92.90234375)"/>
<path d="M0 0 C2.57348347 2.34174121 4.19412285 4.80302666 5.91796875 7.81640625 C6.44970703 8.74517578 6.98144531 9.67394531 7.52929688 10.63085938 C8.07650391 11.59830078 8.62371094 12.56574219 9.1875 13.5625 C9.74630859 14.53380859 10.30511719 15.50511719 10.88085938 16.50585938 C15 23.74327495 15 23.74327495 15 26 C12.00667261 25.0022242 11.05233685 24.2477975 9 22 C8.34 22.33 7.68 22.66 7 23 C6.67 19.04 6.34 15.08 6 11 C5.34 11 4.68 11 4 11 C3.34 9.35 2.68 7.7 2 6 C1.34 6 0.68 6 0 6 C0 4.02 0 2.04 0 0 Z " fill="#A64825" transform="translate(122,112)"/>
<path d="M0 0 C3.43606272 3.21589743 5.45582314 6.93272116 7.75 11 C8.17410156 11.72445312 8.59820312 12.44890625 9.03515625 13.1953125 C9.62876953 14.24332031 9.62876953 14.24332031 10.234375 15.3125 C10.59756836 15.94800781 10.96076172 16.58351562 11.33496094 17.23828125 C12 19 12 19 11 22 C10.34 22 9.68 22 9 22 C8.5875 21.05125 8.175 20.1025 7.75 19.125 C6.36608308 15.91718032 6.36608308 15.91718032 3.96875 15.109375 C2 14 2 14 1.171875 11.7578125 C0.96304688 10.45457031 0.96304688 10.45457031 0.75 9.125 C0.60046875 8.26132813 0.4509375 7.39765625 0.296875 6.5078125 C0 4 0 4 0 0 Z " fill="#B4512F" transform="translate(232,199)"/>
<path d="M0 0 C1.07174763 3.65188082 0.76411467 6.26432828 0 10 C-0.66 10 -1.32 10 -2 10 C-2.0825 10.515625 -2.165 11.03125 -2.25 11.5625 C-3.32140225 15.04455732 -5.13523605 17.87200885 -7 21 C-9 20 -9 20 -10 17 C-9.19555664 15.09887695 -9.19555664 15.09887695 -7.91015625 12.98828125 C-7.45576172 12.23095703 -7.00136719 11.47363281 -6.53320312 10.69335938 C-6.04787109 9.90767578 -5.56253906 9.12199219 -5.0625 8.3125 C-4.34030273 7.11657227 -4.34030273 7.11657227 -3.60351562 5.89648438 C-2.41134561 3.92527257 -1.2099739 1.96031588 0 0 Z " fill="#EE6833" transform="translate(254,154)"/>
<path d="M0 0 C0.99 0.33 1.98 0.66 3 1 C3 1.66 3 2.32 3 3 C3.99 2.67 4.98 2.34 6 2 C6.28875 3.134375 6.5775 4.26875 6.875 5.4375 C7.24625 6.613125 7.6175 7.78875 8 9 C8.66 9.33 9.32 9.66 10 10 C10.78015621 11.82510997 11.47795406 13.68606676 12.125 15.5625 C12.47820312 16.57441406 12.83140625 17.58632812 13.1953125 18.62890625 C13.46085938 19.41136719 13.72640625 20.19382813 14 21 C13.34 21.66 12.68 22.32 12 23 C9.99304709 19.54565686 7.99563221 16.0858937 6 12.625 C5.42765625 11.64015625 4.8553125 10.6553125 4.265625 9.640625 C3.72421875 8.69960937 3.1828125 7.75859375 2.625 6.7890625 C2.12226563 5.91975098 1.61953125 5.05043945 1.1015625 4.15478516 C0 2 0 2 0 0 Z " fill="#DE683B" transform="translate(205,222)"/>
<path d="M0 0 C0.99 0.33 1.98 0.66 3 1 C3.33 2.65 3.66 4.3 4 6 C4.598125 5.814375 5.19625 5.62875 5.8125 5.4375 C8 5 8 5 11 6 C10.979375 6.886875 10.95875 7.77375 10.9375 8.6875 C10.88649166 11.93148737 10.88649166 11.93148737 11.625 14.75 C11.74875 15.4925 11.8725 16.235 12 17 C11.34 17.66 10.68 18.32 10 19 C8.32626249 16.21251481 6.66223733 13.41935573 5 10.625 C4.28457031 9.43390625 4.28457031 9.43390625 3.5546875 8.21875 C3.10351562 7.45820313 2.65234375 6.69765625 2.1875 5.9140625 C1.76855469 5.2123291 1.34960938 4.5105957 0.91796875 3.78759766 C0 2 0 2 0 0 Z " fill="#DD612F" transform="translate(131,198)"/>
<path d="M0 0 C2.57348347 2.34174121 4.19412285 4.80302666 5.91796875 7.81640625 C6.44970703 8.74517578 6.98144531 9.67394531 7.52929688 10.63085938 C8.07650391 11.59830078 8.62371094 12.56574219 9.1875 13.5625 C9.74630859 14.53380859 10.30511719 15.50511719 10.88085938 16.50585938 C15 23.74327495 15 23.74327495 15 26 C14.01 26 13.02 26 12 26 C9.15015702 21.34525646 7.2976183 17.29860806 6 12 C5.34 12 4.68 12 4 12 C4 11.01 4 10.02 4 9 C3.01 8.67 2.02 8.34 1 8 C-0.25 5.0625 -0.25 5.0625 -1 2 C-0.67 1.34 -0.34 0.68 0 0 Z " fill="#8C3E22" transform="translate(171,93)"/>
<path d="M0 0 C2.1892074 1.86082629 3.73389911 3.95871421 5.25 6.375 C5.78367188 7.22191406 5.78367188 7.22191406 6.328125 8.0859375 C7.29862324 10.85072898 6.90755197 12.1980819 6 15 C4.61010157 17.6881552 3.0405658 20.24710373 1.4375 22.8125 C1.01275391 23.50537109 0.58800781 24.19824219 0.15039062 24.91210938 C-0.89309456 26.61216951 -1.94565296 28.30665476 -3 30 C-3.33 28.68 -3.66 27.36 -4 26 C-3.34 26 -2.68 26 -2 26 C-2 24.35 -2 22.7 -2 21 C-1.34 21 -0.68 21 0 21 C0 19.35 0 17.7 0 16 C1.32 15.67 2.64 15.34 4 15 C4 12.36 4 9.72 4 7 C3.34 7 2.68 7 2 7 C0 4 0 4 0 0 Z " fill="#8F4227" transform="translate(244,220)"/>
<path d="M0 0 C3.74993479 -0.05811773 7.49975352 -0.09363593 11.25 -0.125 C12.84521484 -0.15013672 12.84521484 -0.15013672 14.47265625 -0.17578125 C16.00986328 -0.18544922 16.00986328 -0.18544922 17.578125 -0.1953125 C18.52075195 -0.20578613 19.46337891 -0.21625977 20.43457031 -0.22705078 C23.09951941 0.00880787 24.71863092 0.64338341 27 2 C27 2.99 27 3.98 27 5 C26.01 5 25.02 5 24 5 C24.33 5.99 24.66 6.98 25 8 C24.34 8 23.68 8 23 8 C23 7.01 23 6.02 23 5 C20.31006408 4.10335469 18.61269679 3.85617496 15.83984375 3.7890625 C14.6497168 3.74652344 14.6497168 3.74652344 13.43554688 3.703125 C11.76650513 3.65092667 10.09719588 3.60668987 8.42773438 3.5703125 C7.63560547 3.539375 6.84347656 3.5084375 6.02734375 3.4765625 C5.30281006 3.45674316 4.57827637 3.43692383 3.83178711 3.41650391 C2 3 2 3 0 0 Z " fill="#AB4626" transform="translate(291,92)"/>
<path d="M0 0 C21.5865815 -1.80119101 21.5865815 -1.80119101 27.1875 2.37890625 C28.99634512 5.26929002 30.24633619 7.67589338 31 11 C30.67 11.66 30.34 12.32 30 13 C29.67 12.01 29.34 11.02 29 10 C27.7625 9.566875 27.7625 9.566875 26.5 9.125 C25.675 8.75375 24.85 8.3825 24 8 C23.1875 5.375 23.1875 5.375 23 3 C18.26120232 1.85149303 13.53708638 1.67098443 8.6875 1.4375 C7.85154297 1.39431641 7.01558594 1.35113281 6.15429688 1.30664062 C4.10303065 1.20114693 2.0515352 1.10012685 0 1 C0 0.67 0 0.34 0 0 Z " fill="#7E311B" transform="translate(87,92)"/>
<path d="M0 0 C0.99 0 1.98 0 3 0 C3.33 1.32 3.66 2.64 4 4 C4.99 4 5.98 4 7 4 C7.268125 5.0725 7.53625 6.145 7.8125 7.25 C8.86227827 10.56508928 9.74612328 12.43877646 12 15 C11.34 16.32 10.68 17.64 10 19 C8.32626249 16.21251481 6.66223733 13.41935573 5 10.625 C4.28457031 9.43390625 4.28457031 9.43390625 3.5546875 8.21875 C3.10351562 7.45820313 2.65234375 6.69765625 2.1875 5.9140625 C1.76855469 5.2123291 1.34960938 4.5105957 0.91796875 3.78759766 C0 2 0 2 0 0 Z " fill="#9F492A" transform="translate(192,200)"/>
<path d="M0 0 C0.33 0.66 0.66 1.32 1 2 C0.13549805 3.93945312 0.13549805 3.93945312 -1.23828125 6.28125 C-1.72876953 7.12300781 -2.21925781 7.96476563 -2.72460938 8.83203125 C-3.51061523 10.15267578 -3.51061523 10.15267578 -4.3125 11.5 C-5.08110352 12.82064453 -5.08110352 12.82064453 -5.86523438 14.16796875 C-9.70345837 20.70345837 -9.70345837 20.70345837 -12 23 C-12.3636198 18.75776898 -11.5393228 16.41831915 -9 13 C-8.34 13 -7.68 13 -7 13 C-7.04125 12.071875 -7.0825 11.14375 -7.125 10.1875 C-7 7 -7 7 -5 4 C-4.34 4 -3.68 4 -3 4 C-3.33 3.01 -3.66 2.02 -4 1 C-2.68 0.67 -1.36 0.34 0 0 Z " fill="#AD522F" transform="translate(276,186)"/>
<path d="M0 0 C4.27880146 3.66754411 6.63995359 8.25673561 9.3125 13.125 C9.77978516 13.94871094 10.24707031 14.77242187 10.72851562 15.62109375 C11.38303711 16.80251953 11.38303711 16.80251953 12.05078125 18.0078125 C12.44950439 18.72598145 12.84822754 19.44415039 13.2590332 20.18408203 C13.50355225 20.78333496 13.74807129 21.38258789 14 22 C13.67 22.66 13.34 23.32 13 24 C11.32937023 22.48124566 10.11260858 21.23326063 9.125 19.1875 C7.97922415 16.73523996 7.97922415 16.73523996 5.4375 14.125 C2.82397858 10.77433152 2.43886964 9.12537465 2 5 C1.37774395 3.31624835 0.72455635 1.64232772 0 0 Z " fill="#80321E" transform="translate(142,147)"/>
<path d="M0 0 C1.30249153 3.59855032 0.69931441 5.58099473 -0.75 9.0625 C-1.09546875 9.91972656 -1.4409375 10.77695313 -1.796875 11.66015625 C-2.98463199 13.97011221 -3.94768092 15.4192997 -6 17 C-6.99 17 -7.98 17 -9 17 C-7.51481201 12.95698825 -5.57122002 9.38853744 -3.375 5.6875 C-2.74335938 4.61886719 -2.11171875 3.55023438 -1.4609375 2.44921875 C-0.97882813 1.64097656 -0.49671875 0.83273438 0 0 Z " fill="#A74A29" transform="translate(284,102)"/>
<path d="M0 0 C0.99 0 1.98 0 3 0 C3.95921722 1.74951568 4.91733817 3.49963244 5.875 5.25 C6.67550781 6.71179688 6.67550781 6.71179688 7.4921875 8.203125 C8.23855469 9.58757812 8.23855469 9.58757812 9 11 C9.41507813 11.69609375 9.83015625 12.3921875 10.2578125 13.109375 C11.18684106 15.47595303 10.69381593 16.61039627 10 19 C8.32626249 16.21251481 6.66223733 13.41935573 5 10.625 C4.28457031 9.43390625 4.28457031 9.43390625 3.5546875 8.21875 C3.10351562 7.45820313 2.65234375 6.69765625 2.1875 5.9140625 C1.76855469 5.2123291 1.34960938 4.5105957 0.91796875 3.78759766 C0 2 0 2 0 0 Z " fill="#9B492D" transform="translate(173,167)"/>
<path d="M0 0 C3.465 1.98 3.465 1.98 7 4 C7 4.66 7 5.32 7 6 C7.66 6 8.32 6 9 6 C9 8.97 9 11.94 9 15 C6.3415435 12.3415435 4.71488004 10.12692234 2.8125 6.9375 C2.01779297 5.62072266 2.01779297 5.62072266 1.20703125 4.27734375 C0 2 0 2 0 0 Z " fill="#D35E33" transform="translate(158,245)"/>
<path d="M0 0 C3 2 3 2 5 4 C5 4.99 5 5.98 5 7 C5.66 7.33 6.32 7.66 7 8 C7.625 10.5625 7.625 10.5625 8 13 C9.98 12.67 11.96 12.34 14 12 C13.34 13.65 12.68 15.3 12 17 C10.1953125 16.828125 10.1953125 16.828125 8 16 C6.3671875 13.671875 6.3671875 13.671875 4.875 10.75 C4.37742188 9.79609375 3.87984375 8.8421875 3.3671875 7.859375 C2.12996512 5.27181277 1.02596891 2.67729031 0 0 Z " fill="#83341B" transform="translate(250,197)"/>
<path d="M0 0 C1.32 0 2.64 0 4 0 C4.103125 0.639375 4.20625 1.27875 4.3125 1.9375 C4.539375 2.618125 4.76625 3.29875 5 4 C5.99 4.33 6.98 4.66 8 5 C8.33 8.3 8.66 11.6 9 15 C4.95808535 10.50898372 2.56325559 5.41015011 0 0 Z " fill="#BB542F" transform="translate(149,230)"/>
<path d="M0 0 C0.66 0.33 1.32 0.66 2 1 C2 1.66 2 2.32 2 3 C2.66 3 3.32 3 4 3 C4 5.64 4 8.28 4 11 C3.34 11 2.68 11 2 11 C1.87625 11.61875 1.7525 12.2375 1.625 12.875 C1 15 1 15 -1 17 C-1.12462322 11.26733196 -0.6416966 5.69505736 0 0 Z " fill="#F0692F" transform="translate(244,224)"/>
<path d="M0 0 C2.63978826 3.18595135 5.10498388 6.30970546 7 10 C6.67 10.66 6.34 11.32 6 12 C4.68 12 3.36 12 2 12 C2 10.02 2 8.04 2 6 C1.01 5.67 0.02 5.34 -1 5 C-0.67 3.35 -0.34 1.7 0 0 Z " fill="#C2542F" transform="translate(221,180)"/>
<path d="M0 0 C2.63520741 2.40502363 4.40302943 5.0185849 6.25 8.0625 C7.06210938 9.37927734 7.06210938 9.37927734 7.890625 10.72265625 C8.25671875 11.47417969 8.6228125 12.22570312 9 13 C8.67 13.66 8.34 14.32 8 15 C7.34 14.67 6.68 14.34 6 14 C6 13.34 6 12.68 6 12 C5.38125 11.79375 4.7625 11.5875 4.125 11.375 C1.10124749 9.41845426 0.82359005 7.43162522 0 4 C0 2.68 0 1.36 0 0 Z " fill="#954226" transform="translate(194,133)"/>
<path d="M0 0 C1.23294418 2.46588835 0.88181632 3.44039403 0.4375 6.125 C-0.18362084 10.91539446 0.58101011 14.40915035 2 19 C-0.98770538 16.43910967 -2.54473565 13.63816086 -4 10 C-3.80509749 6.00449856 -2.17152059 3.30448786 0 0 Z " fill="#823A24" transform="translate(214,119)"/>
<path d="M0 0 C4.97631579 4.81578947 4.97631579 4.81578947 5.0625 9.125 C5.041875 10.07375 5.02125 11.0225 5 12 C4.34 12 3.68 12 3 12 C2.67 11.34 2.34 10.68 2 10 C1.34 10 0.68 10 0 10 C0 6.7 0 3.4 0 0 Z " fill="#BC5329" transform="translate(318,95)"/>
<path d="M0 0 C4.83092224 2.47739602 4.83092224 2.47739602 5.6875 5.125 C5.790625 5.74375 5.89375 6.3625 6 7 C6.66 7.33 7.32 7.66 8 8 C8.59355614 10.64860427 8.74209269 13.29197322 9 16 C5.49702126 11.97806144 0 5.60566856 0 0 Z " fill="#A84A2B" transform="translate(176,276)"/>
<path d="M0 0 C0.33 0.66 0.66 1.32 1 2 C0.29296875 3.734375 0.29296875 3.734375 -0.8125 5.75 C-2.57574291 9.09345023 -3.91053122 12.36843741 -5 16 C-5.66 16 -6.32 16 -7 16 C-7 16.66 -7 17.32 -7 18 C-7.66 18 -8.32 18 -9 18 C-7.65072455 13.46152802 -5.80840652 9.68067754 -3.375 5.625 C-2.74335938 4.56539062 -2.11171875 3.50578125 -1.4609375 2.4140625 C-0.73777344 1.21910156 -0.73777344 1.21910156 0 0 Z " fill="#782F1B" transform="translate(264,136)"/>
<path d="M0 0 C0.33 0.66 0.66 1.32 1 2 C-0.36328125 4.4609375 -0.36328125 4.4609375 -2.3125 7.375 C-4.40284113 10.5211118 -6.40068749 13.57406153 -8 17 C-8.33 17 -8.66 17 -9 17 C-9.36666667 11.5 -9.36666667 11.5 -7.625 9.125 C-6 8 -6 8 -4 8 C-4 6.68 -4 5.36 -4 4 C-2 1.75 -2 1.75 0 0 Z " fill="#8A3C21" transform="translate(266,100)"/>
<path d="M0 0 C0.66 0 1.32 0 2 0 C2 0.66 2 1.32 2 2 C2.99 2.33 3.98 2.66 5 3 C6.421875 5.3984375 6.421875 5.3984375 7.75 8.375 C8.19859375 9.35210937 8.6471875 10.32921875 9.109375 11.3359375 C10 14 10 14 9 17 C7.49743011 14.35559624 5.9978388 11.70958148 4.5 9.0625 C4.07074219 8.30775391 3.64148438 7.55300781 3.19921875 6.77539062 C2.79316406 6.05673828 2.38710937 5.33808594 1.96875 4.59765625 C1.59169922 3.93258057 1.21464844 3.26750488 0.82617188 2.58227539 C0 1 0 1 0 0 Z " fill="#933F24" transform="translate(120,180)"/>
<path d="M0 0 C0.33 0.66 0.66 1.32 1 2 C0.46375 2.94875 -0.0725 3.8975 -0.625 4.875 C-3.16789863 10.24587558 -0.71297863 15.65023597 1 21 C-2.00238047 18.17908209 -3.0907056 16.09182478 -4 12 C-4.01340794 4.15635717 -4.01340794 4.15635717 -1.44921875 1.23046875 C-0.97097656 0.82441406 -0.49273437 0.41835937 0 0 Z " fill="#E66A3C" transform="translate(217,118)"/>
<path d="M0 0 C2.64 0 5.28 0 8 0 C7.67 2.64 7.34 5.28 7 8 C6.01 8.33 5.02 8.66 4 9 C4 10.32 4 11.64 4 13 C3.360625 13.12375 2.72125 13.2475 2.0625 13.375 C1.381875 13.58125 0.70125 13.7875 0 14 C-0.33 14.66 -0.66 15.32 -1 16 C-1 14.68 -1 13.36 -1 12 C0.32 11.67 1.64 11.34 3 11 C3 10.01 3 9.02 3 8 C3.66 8 4.32 8 5 8 C5.144375 7.21625 5.28875 6.4325 5.4375 5.625 C6 3 6 3 7 1 C4.69 1 2.38 1 0 1 C0 0.67 0 0.34 0 0 Z " fill="#ED6B33" transform="translate(258,95)"/>
<path d="M0 0 C0.89589844 0.00322266 1.79179688 0.00644531 2.71484375 0.00976562 C4.12056641 0.02233398 4.12056641 0.02233398 5.5546875 0.03515625 C6.49957031 0.03966797 7.44445312 0.04417969 8.41796875 0.04882812 C10.75527137 0.06063268 13.09244811 0.07709866 15.4296875 0.09765625 C15.4296875 0.42765625 15.4296875 0.75765625 15.4296875 1.09765625 C12.13987274 1.4902972 8.84779489 1.85875216 5.5546875 2.22265625 C4.61753906 2.33480469 3.68039063 2.44695312 2.71484375 2.5625 C1.37099609 2.70751953 1.37099609 2.70751953 0 2.85546875 C-1.24112549 2.99686279 -1.24112549 2.99686279 -2.50732422 3.14111328 C-4.5703125 3.09765625 -4.5703125 3.09765625 -6.5703125 1.09765625 C-4.16971433 -0.10264283 -2.67670601 -0.01694118 0 0 Z " fill="#CB6743" transform="translate(89.5703125,92.90234375)"/>
<path d="M0 0 C1.32 0 2.64 0 4 0 C4 2.31 4 4.62 4 7 C2.35 7.33 0.7 7.66 -1 8 C-1.04241723 5.66705225 -1.04092937 3.33297433 -1 1 C-0.67 0.67 -0.34 0.34 0 0 Z " fill="#EB652D" transform="translate(274,179)"/>
<path d="M0 0 C1.60031344 3.20062687 0.03173691 5.72271806 -1 9 C-0.34 9.33 0.32 9.66 1 10 C1 10.99 1 11.98 1 13 C2.32 13.66 3.64 14.32 5 15 C4.34 16.32 3.68 17.64 3 19 C1.9615789 17.28133783 0.94485365 15.54955402 -0.0625 13.8125 C-0.63097656 12.84957031 -1.19945312 11.88664063 -1.78515625 10.89453125 C-3.1624799 7.61286943 -3.15361101 6.31593503 -2 3 C-1.34 2.01 -0.68 1.02 0 0 Z " fill="#7B351F" transform="translate(243,173)"/>
<path d="M0 0 C3.29967665 2.80472516 5.08459104 6.16918209 7 10 C6.67 10.99 6.34 11.98 6 13 C4.68 12.67 3.36 12.34 2 12 C2.33 11.01 2.66 10.02 3 9 C2.34 8.34 1.68 7.68 1 7 C0.59952556 4.67724823 0.2602896 2.34260643 0 0 Z " fill="#AB4A29" transform="translate(214,168)"/>
<path d="M0 0 C0.33 0.66 0.66 1.32 1 2 C1.66 2 2.32 2 3 2 C3 2.66 3 3.32 3 4 C3.66 4 4.32 4 5 4 C5.33 5.98 5.66 7.96 6 10 C4.140625 9.75390625 4.140625 9.75390625 2 9 C0.734375 7.15234375 0.734375 7.15234375 -0.25 4.9375 C-0.58515625 4.20402344 -0.9203125 3.47054687 -1.265625 2.71484375 C-1.50796875 2.14894531 -1.7503125 1.58304688 -2 1 C-1.34 0.67 -0.68 0.34 0 0 Z " fill="#D35F32" transform="translate(105,149)"/>
<path d="M0 0 C2.48982535 2.27745789 4.10368997 4.62335238 5.75 7.5625 C6.19859375 8.34753906 6.6471875 9.13257813 7.109375 9.94140625 C7.40328125 10.62074219 7.6971875 11.30007812 8 12 C7.67 12.66 7.34 13.32 7 14 C6.34 14 5.68 14 5 14 C5 12.68 5 11.36 5 10 C4.01 9.67 3.02 9.34 2 9 C0.29466783 5.67908998 0 3.81507216 0 0 Z " fill="#943E24" transform="translate(186,119)"/>
<path d="M0 0 C2 2 2 2 3 5 C3.66 5.33 4.32 5.66 5 6 C7.18975773 9.28463659 7.99806563 12.20696275 9 16 C8.34 16 7.68 16 7 16 C7 14.35 7 12.7 7 11 C5.35 10.67 3.7 10.34 2 10 C0 3.375 0 3.375 0 0 Z " fill="#ED6A37" transform="translate(186,123)"/>
<path d="M0 0 C1.2380014 3.57644848 0.74926071 6.33694766 0 10 C-1.65 10 -3.3 10 -5 10 C-3.66511872 6.40608886 -2.03977277 3.24509304 0 0 Z " fill="#A84A28" transform="translate(254,154)"/>
<path d="M0 0 C3.48872415 1.16290805 4.09976864 2.13967609 6.1875 5.0625 C6.71730469 5.79597656 7.24710937 6.52945313 7.79296875 7.28515625 C8.19128906 7.85105469 8.58960937 8.41695312 9 9 C8.67 9.66 8.34 10.32 8 11 C6.68 10.01 5.36 9.02 4 8 C3.01 8.495 3.01 8.495 2 9 C2 6.69 2 4.38 2 2 C1.34 2 0.68 2 0 2 C0 1.34 0 0.68 0 0 Z " fill="#BE522C" transform="translate(113,101)"/>
<path d="M0 0 C3 2 3 2 3.5 4.0625 C3.665 4.701875 3.83 5.34125 4 6 C4.99 6.33 5.98 6.66 7 7 C7.33 9.31 7.66 11.62 8 14 C0 4.57142857 0 4.57142857 0 0 Z " fill="#994329" transform="translate(184,186)"/>
<path d="M0 0 C1.43088528 2.86177057 0.59991697 4.93375773 0 8 C0.66 8.33 1.32 8.66 2 9 C1.34 9 0.68 9 0 9 C0.33 10.65 0.66 12.3 1 14 C0.34 14 -0.32 14 -1 14 C-2.90185343 11.20315672 -2.99271185 9.89614391 -2.75 6.4375 C-2 3 -2 3 0 0 Z " fill="#E46F3C" transform="translate(245,172)"/>
<path d="M0 0 C1.98 0.99 1.98 0.99 4 2 C4 3.32 4 4.64 4 6 C5.32 6.66 6.64 7.32 8 8 C8 9.98 8 11.96 8 14 C0 4.57142857 0 4.57142857 0 0 Z " fill="#934026" transform="translate(216,138)"/>
<path d="M0 0 C0.33 0 0.66 0 1 0 C0.73781251 4.4571874 0.42288711 6.51522698 -2.5625 9.9375 C-3.366875 10.618125 -4.17125 11.29875 -5 12 C-5.33 11.34 -5.66 10.68 -6 10 C-4.8203125 7.6171875 -4.8203125 7.6171875 -3.125 4.875 C-2.57070313 3.96492188 -2.01640625 3.05484375 -1.4453125 2.1171875 C-0.96835937 1.41851562 -0.49140625 0.71984375 0 0 Z " fill="#893A21" transform="translate(274,119)"/>
<path d="M0 0 C3 1 3 1 5 4 C4.625 6.6875 4.625 6.6875 4 9 C2.68 8.67 1.36 8.34 0 8 C-0.38063221 5.6739143 -0.71269945 3.33944736 -1 1 C-0.67 0.67 -0.34 0.34 0 0 Z " fill="#EE6A35" transform="translate(210,269)"/>
<path d="M0 0 C0.99 0.33 1.98 0.66 3 1 C3.33 2.65 3.66 4.3 4 6 C4.99 6 5.98 6 7 6 C7.33 8.64 7.66 11.28 8 14 C0 4.57142857 0 4.57142857 0 0 Z " fill="#9E4928" transform="translate(131,198)"/>
<path d="M0 0 C0.33 0.66 0.66 1.32 1 2 C0.29296875 3.83984375 0.29296875 3.83984375 -0.8125 5.9375 C-1.34810547 6.97197266 -1.34810547 6.97197266 -1.89453125 8.02734375 C-2.84989011 9.73213606 -3.91598646 11.3739797 -5 13 C-5.99 13 -6.98 13 -8 13 C-7.67 11.68 -7.34 10.36 -7 9 C-6.34 9 -5.68 9 -5 9 C-5 8.34 -5 7.68 -5 7 C-4.34 6.67 -3.68 6.34 -3 6 C-1.95191959 4.02477154 -0.9479589 2.02518491 0 0 Z " fill="#EF693A" transform="translate(262,145)"/>
<path d="M0 0 C3.28465896 2.79196011 5.01321958 6.23196817 7 10 C7 10.66 7 11.32 7 12 C2.92115955 10.64038652 2.06183628 8.69708575 0 5 C-0.25 2.125 -0.25 2.125 0 0 Z " fill="#DF6D45" transform="translate(139,144)"/>
<path d="M0 0 C3.57011026 3.732388 4.10913442 8.0949989 5 13 C2.36021174 9.81404865 -0.10498388 6.69029454 -2 3 C-1 1 -1 1 0 0 Z " fill="#974324" transform="translate(151,125)"/>
<path d="M0 0 C3.22269618 3.79817765 5.74520378 7.57391854 8 12 C7.67 12.66 7.34 13.32 7 14 C2 9 2 9 1.875 6.375 C1.91625 5.59125 1.9575 4.8075 2 4 C1.34 4 0.68 4 0 4 C0 2.68 0 1.36 0 0 Z " fill="#8A381E" transform="translate(186,223)"/>
<path d="M0 0 C0.99 0 1.98 0 3 0 C5.125 5.625 5.125 5.625 4 9 C0.06153846 5.67692308 0.06153846 5.67692308 -0.25 2.25 C-0.1675 1.5075 -0.085 0.765 0 0 Z " fill="#C25634" transform="translate(247,189)"/>
<path d="M0 0 C3.29078593 2.79716804 5.06305458 6.19528578 7 10 C6.67 10.66 6.34 11.32 6 12 C4.62437146 10.71034824 3.29233607 9.37310707 2 8 C2 7.34 2 6.68 2 6 C1.34 6 0.68 6 0 6 C0 4.02 0 2.04 0 0 Z " fill="#893A24" transform="translate(122,112)"/>
<path d="M0 0 C2.0625 2.25 2.0625 2.25 4 5 C3.75 7.3125 3.75 7.3125 3 9 C2.01 9 1.02 9 0 9 C-1.125 2.25 -1.125 2.25 0 0 Z " fill="#C25230" transform="translate(202,251)"/>
<path d="M0 0 C3.29078593 2.79716804 5.06305458 6.19528578 7 10 C6.67 10.66 6.34 11.32 6 12 C5.01 11.67 4.02 11.34 3 11 C2.4375 9.125 2.4375 9.125 2 7 C1.34 6.01 0.68 5.02 0 4 C0 2.68 0 1.36 0 0 Z " fill="#984122" transform="translate(161,180)"/>
<path d="M0 0 C0.99 0 1.98 0 3 0 C3.33 0.99 3.66 1.98 4 3 C4.66 3.33 5.32 3.66 6 4 C6 3.01 6 2.02 6 1 C6.99 0.67 7.98 0.34 9 0 C8.25 2.4375 8.25 2.4375 7 5 C4.875 5.8125 4.875 5.8125 3 6 C0 2.25 0 2.25 0 0 Z " fill="#8E4126" transform="translate(226,259)"/>
<path d="M0 0 C2 3 2 3 1.875 4.75 C0.59110979 8.05143198 -1.18627674 10.95762549 -3 14 C-3.33 12.68 -3.66 11.36 -4 10 C-3.34 10 -2.68 10 -2 10 C-2 8.35 -2 6.7 -2 5 C-1.34 5 -0.68 5 0 5 C0 3.35 0 1.7 0 0 Z " fill="#AC4C2B" transform="translate(244,236)"/>
<path d="M0 0 C4.42857143 5.14285714 4.42857143 5.14285714 5 9 C3.35 8.67 1.7 8.34 0 8 C0 5.36 0 2.72 0 0 Z " fill="#AA4B2A" transform="translate(156,171)"/>
<path d="M0 0 C1.9375 0.75 1.9375 0.75 4 2 C4.625 4.0625 4.625 4.0625 5 6 C5.66 6.33 6.32 6.66 7 7 C6.34 8.32 5.68 9.64 5 11 C4.16151196 9.54462432 3.32936066 8.08559627 2.5 6.625 C1.80390625 5.40683594 1.80390625 5.40683594 1.09375 4.1640625 C0 2 0 2 0 0 Z " fill="#AF4D2E" transform="translate(167,260)"/>
<path d="M0 0 C0 3.44360632 -0.79591532 4.74795392 -2.5 7.6875 C-2.9640625 8.49574219 -3.428125 9.30398437 -3.90625 10.13671875 C-4.2671875 10.75160156 -4.628125 11.36648437 -5 12 C-5.33 12 -5.66 12 -6 12 C-6 10.35 -6 8.7 -6 7 C-5.34 7 -4.68 7 -4 7 C-3.896875 6.401875 -3.79375 5.80375 -3.6875 5.1875 C-2.91123545 2.71756736 -1.92911079 1.67748765 0 0 Z " fill="#904023" transform="translate(248,131)"/>
<path d="M0 0 C1.875 0.1875 1.875 0.1875 4 1 C5.52164099 3.89111788 6 5.71823412 6 9 C5.34 9 4.68 9 4 9 C0 2.25 0 2.25 0 0 Z " fill="#90432A" transform="translate(224,152)"/>
<path d="M0 0 C0.33 1.32 0.66 2.64 1 4 C0.01 4.33 -0.98 4.66 -2 5 C-2 7.97 -2 10.94 -2 14 C-4.19597689 9.60804623 -4.23618039 8.56435836 -3 4 C-1.4375 1.625 -1.4375 1.625 0 0 Z " fill="#9F4933" transform="translate(82,95)"/>
<path d="M0 0 C0.66 0.33 1.32 0.66 2 1 C2 4.3 2 7.6 2 11 C1.34 10.67 0.68 10.34 0 10 C-0.6328125 7.93359375 -0.6328125 7.93359375 -1.125 5.4375 C-1.29257813 4.61121094 -1.46015625 3.78492187 -1.6328125 2.93359375 C-1.75398437 2.29550781 -1.87515625 1.65742187 -2 1 C-1.34 0.67 -0.68 0.34 0 0 Z " fill="#F0692D" transform="translate(140,100)"/>
<path d="M0 0 C2.4375 1.0625 2.4375 1.0625 5 3 C5.8125 6.6875 5.8125 6.6875 6 10 C3.25722422 6.80009492 1.3697164 3.99500618 0 0 Z " fill="#AB4E2F" transform="translate(158,245)"/>
<path d="M0 0 C1.32 0 2.64 0 4 0 C4.66 2.31 5.32 4.62 6 7 C5.34 7.66 4.68 8.32 4 9 C0 2.25 0 2.25 0 0 Z " fill="#AF4D2B" transform="translate(213,236)"/>
<path d="M0 0 C0.99 0 1.98 0 3 0 C3.33 1.32 3.66 2.64 4 4 C4.99 4 5.98 4 7 4 C7.33 5.32 7.66 6.64 8 8 C7.34 8 6.68 8 6 8 C6 7.34 6 6.68 6 6 C5.195625 5.7525 4.39125 5.505 3.5625 5.25 C1 4 1 4 0.1875 1.875 C0.125625 1.25625 0.06375 0.6375 0 0 Z " fill="#BC5632" transform="translate(192,200)"/>
<path d="M0 0 C3.875 1.75 3.875 1.75 5 4 C5.039992 5.99960012 5.04346799 8.00047242 5 10 C1.55783328 7.3401439 1.00495326 4.09711714 0 0 Z " fill="#B7512C" transform="translate(135,100)"/>
<path d="M0 0 C1.32 0.33 2.64 0.66 4 1 C4.33 2.98 4.66 4.96 5 7 C3.0625 6.3125 3.0625 6.3125 1 5 C0.25 2.375 0.25 2.375 0 0 Z " fill="#B75732" transform="translate(170,199)"/>
<path d="M0 0 C0.33 0.66 0.66 1.32 1 2 C0.22265625 3.7265625 0.22265625 3.7265625 -0.9375 5.625 C-1.618125 6.73875 -2.29875 7.8525 -3 9 C-3.33 9 -3.66 9 -4 9 C-4 6.69 -4 4.38 -4 2 C-2.68 1.34 -1.36 0.68 0 0 Z " fill="#A44925" transform="translate(253,122)"/>
<path d="M0 0 C1.921875 0.7109375 1.921875 0.7109375 4 2 C4.828125 4.1640625 4.828125 4.1640625 5.25 6.625 C5.39953125 7.44226563 5.5490625 8.25953125 5.703125 9.1015625 C5.80109375 9.72804688 5.8990625 10.35453125 6 11 C0 3.28571429 0 3.28571429 0 0 Z " fill="#B65332" transform="translate(84,116)"/>
<path d="M0 0 C3 1 3 1 4.75 4.375 C6 8 6 8 5 11 C4.16151196 9.54462432 3.32936066 8.08559627 2.5 6.625 C1.80390625 5.40683594 1.80390625 5.40683594 1.09375 4.1640625 C0 2 0 2 0 0 Z " fill="#A1482A" transform="translate(205,222)"/>
<path d="M0 0 C2.61500768 2.36595933 4.38999603 4.86049226 6 8 C5.67 8.66 5.34 9.32 5 10 C2.9754262 8.06745228 1.57894208 6.36841312 0 4 C0 2.68 0 1.36 0 0 Z " fill="#893B27" transform="translate(206,154)"/>
<path d="M0 0 C0.99 0 1.98 0 3 0 C1.7508258 3.45925163 0.32472205 6.14693203 -2 9 C-2 7.02 -2 5.04 -2 3 C-1.34 3 -0.68 3 0 3 C0 2.01 0 1.02 0 0 Z " fill="#A74A29" transform="translate(214,290)"/>
<path d="M0 0 C2.61500768 2.36595933 4.38999603 4.86049226 6 8 C5.67 8.66 5.34 9.32 5 10 C4.67 9.01 4.34 8.02 4 7 C3.01 6.67 2.02 6.34 1 6 C0.67 4.02 0.34 2.04 0 0 Z " fill="#86351F" transform="translate(209,263)"/>
<path d="M0 0 C0.66 0 1.32 0 2 0 C2.33 1.98 2.66 3.96 3 6 C1.68 5.67 0.36 5.34 -1 5 C-0.67 3.35 -0.34 1.7 0 0 Z " fill="#CF6033" transform="translate(204,216)"/>
<path d="M0 0 C0.33 0.66 0.66 1.32 1 2 C0.01 3.485 0.01 3.485 -1 5 C-2.32 4.67 -3.64 4.34 -5 4 C-5 3.01 -5 2.02 -5 1 C-3.35 0.67 -1.7 0.34 0 0 Z " fill="#83412A" transform="translate(263,209)"/>
<path d="M0 0 C2.52259061 1.97420135 2.9929808 2.96745642 3.6875 6.1875 C3.790625 7.115625 3.89375 8.04375 4 9 C3.01 8.67 2.02 8.34 1 8 C-0.25 5.0625 -0.25 5.0625 -1 2 C-0.67 1.34 -0.34 0.68 0 0 Z " fill="#AD4F35" transform="translate(171,93)"/>
<path d="M0 0 C2.50037734 2.17424117 3.43628586 3.73045798 4 7 C3.01 7.33 2.02 7.66 1 8 C0 7 0 7 -0.0625 3.4375 C-0.041875 2.303125 -0.02125 1.16875 0 0 Z " fill="#9E4424" transform="translate(175,204)"/>
<path d="M0 0 C3.93846154 3.32307692 3.93846154 3.32307692 4.25 6.75 C4.1675 7.4925 4.085 8.235 4 9 C1.47740939 7.02579865 1.0070192 6.03254358 0.3125 2.8125 C0.209375 1.884375 0.10625 0.95625 0 0 Z " fill="#E66C3F" transform="translate(152,167)"/>
<path d="M0 0 C0.33 0.99 0.66 1.98 1 3 C0.01 3.33 -0.98 3.66 -2 4 C-2.33 5.98 -2.66 7.96 -3 10 C-5 6.25 -5 6.25 -5 4 C-4.360625 3.71125 -3.72125 3.4225 -3.0625 3.125 C-0.84793921 2.17176549 -0.84793921 2.17176549 0 0 Z " fill="#D97146" transform="translate(234,152)"/>
<path d="M0 0 C0.99 0.33 1.98 0.66 3 1 C1.8141763 4.37503669 0.72426311 6.64722731 -2 9 C-2 7.68 -2 6.36 -2 5 C-1.34 5 -0.68 5 0 5 C0 3.35 0 1.7 0 0 Z " fill="#AA502F" transform="translate(296,147)"/>
<path d="M0 0 C0.99 0 1.98 0 3 0 C2.1875 2.9375 2.1875 2.9375 1 6 C0.01 6.33 -0.98 6.66 -2 7 C-1.125 2.25 -1.125 2.25 0 0 Z " fill="#E26D3D" transform="translate(237,144)"/>
<path d="M0 0 C1.32 0.33 2.64 0.66 4 1 C4.66 3.97 5.32 6.94 6 10 C3.36335259 7.36335259 1.744776 5.24029829 0 2 C0 1.34 0 0.68 0 0 Z " fill="#82351F" transform="translate(156,138)"/>
<path d="M0 0 C0.99 0 1.98 0 3 0 C3 0.66 3 1.32 3 2 C3.66 2 4.32 2 5 2 C5.33 3.65 5.66 5.3 6 7 C3 6 3 6 1.3125 2.9375 C0.879375 1.968125 0.44625 0.99875 0 0 Z " fill="#E56C3E" transform="translate(143,114)"/>
<path d="M0 0 C2 2 2 2 2.125 5.125 C2.08375 6.07375 2.0425 7.0225 2 8 C-0.475 7.01 -0.475 7.01 -3 6 C-2.34 5.67 -1.68 5.34 -1 5 C-0.34444881 2.47266765 -0.34444881 2.47266765 0 0 Z " fill="#C8572B" transform="translate(215,273)"/>
<path d="M0 0 C0.99 0 1.98 0 3 0 C4.42944945 2.35438733 5.08661261 3.48032433 4.625 6.25 C4.41875 6.8275 4.2125 7.405 4 8 C0 2.25 0 2.25 0 0 Z " fill="#994627" transform="translate(144,221)"/>
<path d="M0 0 C0.99 0.33 1.98 0.66 3 1 C4.1875 4.0625 4.1875 4.0625 5 7 C3.68 6.67 2.36 6.34 1 6 C0.67 4.02 0.34 2.04 0 0 Z " fill="#E06738" transform="translate(129,192)"/>
<path d="M0 0 C1.32 1.65 2.64 3.3 4 5 C3.67 5.66 3.34 6.32 3 7 C1.68 6.34 0.36 5.68 -1 5 C-0.67 3.35 -0.34 1.7 0 0 Z " fill="#AF4D2C" transform="translate(221,180)"/>
<path d="M0 0 C0.88492145 2.47778006 1.11637742 3.66056586 0.25 6.1875 C-1 8 -1 8 -4 9 C-2.94124926 5.59687262 -1.99097846 2.98646769 0 0 Z " fill="#853A21" transform="translate(248,164)"/>
<path d="M0 0 C1.42944945 2.35438733 2.08661261 3.48032433 1.625 6.25 C1.41875 6.8275 1.2125 7.405 1 8 C0.01 8 -0.98 8 -2 8 C-1.47731534 5.23723823 -0.89130413 2.6739124 0 0 Z " fill="#D3562B" transform="translate(212,164)"/>
<path d="M0 0 C0.33 0.99 0.66 1.98 1 3 C1.99 3 2.98 3 4 3 C4 3.99 4 4.98 4 6 C2.125 5.6875 2.125 5.6875 0 5 C-0.66 4.01 -1.32 3.02 -2 2 C-1.34 2 -0.68 2 0 2 C0 1.34 0 0.68 0 0 Z " fill="#BB582F" transform="translate(193,300)"/>
<path d="M0 0 C2.50037734 2.17424117 3.43628586 3.73045798 4 7 C3.01 7 2.02 7 1 7 C0.67 4.69 0.34 2.38 0 0 Z " fill="#964223" transform="translate(198,244)"/>
<path d="M0 0 C1.32 0.33 2.64 0.66 4 1 C5.25 3.5625 5.25 3.5625 6 6 C5.34 6.66 4.68 7.32 4 8 C2.68 5.36 1.36 2.72 0 0 Z " fill="#AA4B2E" transform="translate(112,166)"/>
<path d="M0 0 C0.99 0.33 1.98 0.66 3 1 C3.6875 3.0625 3.6875 3.0625 4 5 C2.68 5.33 1.36 5.66 0 6 C0 4.02 0 2.04 0 0 Z " fill="#EF6938" transform="translate(147,161)"/>
<path d="M0 0 C0.66 0.33 1.32 0.66 2 1 C1.75 4.375 1.75 4.375 1 8 C-0.98 8.99 -0.98 8.99 -3 10 C-2.01 6.7 -1.02 3.4 0 0 Z " fill="#ED6B34" transform="translate(275,119)"/>
<path d="M0 0 C0 2.31 0 4.62 0 7 C-0.66 7 -1.32 7 -2 7 C-2.33 5.02 -2.66 3.04 -3 1 C-1 0 -1 0 0 0 Z " fill="#DA663B" transform="translate(93,123)"/>
<path d="M0 0 C0.99 0 1.98 0 3 0 C2.625 2.9375 2.625 2.9375 2 6 C1.01 6.495 1.01 6.495 0 7 C0 4.69 0 2.38 0 0 Z " fill="#8C4734" transform="translate(267,93)"/>
</svg>
