<?xml version="1.0" encoding="UTF-8"?>
<svg version="1.1" xmlns="http://www.w3.org/2000/svg" width="400" height="400">
<path d="M0 0 C132 0 264 0 400 0 C400 132 400 264 400 400 C268 400 136 400 0 400 C0 268 0 136 0 0 Z " fill="#0E0D0D" transform="translate(0,0)"/>
<path d="M0 0 C1.12148437 0.00322266 2.24296875 0.00644531 3.3984375 0.00976562 C4.5740625 0.01814453 5.7496875 0.02652344 6.9609375 0.03515625 C8.14429687 0.03966797 9.32765625 0.04417969 10.546875 0.04882812 C13.47661257 0.06064158 16.40625022 0.07711367 19.3359375 0.09765625 C19.88121094 1.07863281 20.42648438 2.05960937 20.98828125 3.0703125 C25.19022052 10.60066961 29.47742532 18.06122658 33.94995117 25.43408203 C37.16474183 30.7568058 40.20913015 36.16694667 43.2355957 41.59838867 C45.44011519 45.54293349 47.73422584 49.39740744 50.171875 53.203125 C52.14088339 56.40771919 53.88479146 59.73457307 55.671875 63.04296875 C59.89025196 70.78656213 64.21780183 78.45115613 69.0234375 85.84765625 C71.10721646 89.07143984 72.98353747 92.26478696 74.6484375 95.72265625 C77.9955504 102.64583765 82.03822765 109.16811472 85.96240234 115.77392578 C88.25857018 119.65855527 90.51614228 123.56535026 92.7734375 127.47265625 C93.22984619 128.26196533 93.68625488 129.05127441 94.15649414 129.86450195 C96.01565289 133.08040588 97.8735085 136.29706189 99.73144531 139.51367188 C101.1199118 141.91697407 102.50896311 144.31993664 103.8984375 146.72265625 C104.35323486 147.50922607 104.80803223 148.2957959 105.27661133 149.10620117 C107.90002106 153.6371196 110.54302089 158.15572434 113.20751953 162.66259766 C114.84603569 165.43728786 116.47369433 168.21827932 118.10107422 170.99951172 C118.94853422 172.439423 119.80205524 173.87577908 120.66064453 175.30908203 C121.96139514 177.48112153 123.24372194 179.66317524 124.5234375 181.84765625 C124.92256348 182.50338623 125.32168945 183.15911621 125.73291016 183.8347168 C127.2564758 186.46748491 128.33499631 188.50000159 128.33984375 191.578125 C126.91472618 195.15478194 125.08265066 198.37430304 123.0859375 201.66015625 C122.70308594 202.31951172 122.32023438 202.97886719 121.92578125 203.65820312 C118.82934497 208.81030028 115.87372865 212.35938973 109.8984375 214.09765625 C105.33049994 214.09765625 103.76473143 213.07921618 100.3359375 210.09765625 C97.25245315 206.32038792 94.94187561 202.4405631 92.640625 198.15234375 C89.19421985 191.79651921 85.58755892 185.53943016 81.9609375 179.28515625 C80.6257435 176.97818733 79.29143027 174.67071023 77.95703125 172.36328125 C77.32651855 171.27337891 76.69600586 170.18347656 76.04638672 169.06054688 C74.0253072 165.55957327 72.02157669 162.04926607 70.0234375 158.53515625 C66.74932026 152.78947112 63.39792199 147.0915206 60.03686523 141.39648438 C57.52049902 137.12745156 55.03559034 132.84298592 52.5859375 128.53515625 C48.34144177 121.07513344 44.00994795 113.66667474 39.68066406 106.25561523 C35.61198785 99.2893349 31.56058808 92.31341714 27.5246582 85.328125 C24.38023333 79.89011288 21.21436499 74.46490407 18.04272461 69.04272461 C8.06244991 51.97529762 8.06244991 51.97529762 3.75756836 44.20043945 C1.53452091 40.19044974 -0.7615247 36.23215337 -3.1015625 32.2890625 C-3.70025146 31.26627197 -4.29894043 30.24348145 -4.91577148 29.18969727 C-6.09683808 27.17295082 -7.29110022 25.16385724 -8.50024414 23.16381836 C-11.7881485 17.50575827 -13.63216888 13.67058904 -12.6640625 7.09765625 C-9.81719753 1.37132861 -6.04136581 -0.03051195 0 0 Z " fill="#FC6525" transform="translate(91.6640625,92.90234375)"/>
<path d="M0 0 C5.56804212 -0.27296195 11.13215984 -0.47195459 16.70532227 -0.60424805 C18.59826496 -0.65940429 20.49074229 -0.73435819 22.38208008 -0.82983398 C38.00935105 -1.59865789 38.00935105 -1.59865789 42.62841797 2.11083984 C44.49433311 4.99779525 45.75257962 7.80060937 47 11 C47.97756817 12.81305642 48.9774669 14.61426121 50 16.40234375 C50.48597656 17.30968262 50.97195312 18.21702148 51.47265625 19.15185547 C54.24738056 24.32607762 57.13307829 29.43897288 60 34.5625 C60.59039062 35.62146484 61.18078125 36.68042969 61.7890625 37.77148438 C64.91268613 43.3547896 68.10695489 48.87992748 71.41894531 54.35327148 C74.65469499 59.77000438 77.75316418 65.26709939 80.875 70.75 C81.55067776 71.93495485 82.22645869 73.11985088 82.90234375 74.3046875 C84.2543926 76.67514373 85.60601158 79.04584422 86.95727539 81.41674805 C93.97709244 93.73727043 93.97709244 93.73727043 101.05761719 106.02294922 C101.93421451 107.53499433 102.80836887 109.0484572 103.68066406 110.56298828 C106.13822958 114.82350244 108.63130537 119.05717175 111.18359375 123.26171875 C111.95352661 124.54622925 111.95352661 124.54622925 112.73901367 125.85668945 C113.72602812 127.50171353 114.72444706 129.13996304 115.7355957 130.77026367 C118.97438518 136.20594073 118.97438518 136.20594073 119.08203125 139.54296875 C117.47702782 143.18754333 115.51530199 146.54411442 113.4375 149.9375 C112.53175406 151.44483326 111.62681924 152.95265419 110.72265625 154.4609375 C110.26777832 155.21600586 109.81290039 155.97107422 109.34423828 156.74902344 C107.307238 160.16005552 105.33728517 163.60810274 103.375 167.0625 C102.72273438 168.20847656 102.07046875 169.35445312 101.3984375 170.53515625 C100.93695313 171.34855469 100.47546875 172.16195312 100 173 C97.0362351 169.46953719 94.68161012 165.89791879 92.4375 161.875 C91.73375248 160.6233156 91.02928618 159.37203513 90.32421875 158.12109375 C89.94958496 157.4544873 89.57495117 156.78788086 89.18896484 156.10107422 C87.07320915 152.36222545 84.9084255 148.65182097 82.75 144.9375 C78.80687842 138.13996254 74.89351151 131.32606589 71 124.5 C66.81235213 117.15971759 62.60109151 109.8338644 58.35986328 102.52441406 C55.66210294 97.87416288 52.97331671 93.21890756 50.29296875 88.55859375 C44.55670005 78.58834404 38.82298638 68.62371873 32.86108398 58.78637695 C30.27638171 54.5058321 27.86015435 50.15313835 25.4921875 45.75 C21.2245055 37.88495255 16.67944236 30.16799951 12.1875 22.4296875 C11.15749412 20.65255721 10.12775064 18.87527516 9.09811401 17.09793091 C8.07279755 15.33025329 7.04435711 13.56441766 6.01586914 11.79858398 C5.38285889 10.70618408 4.74984863 9.61378418 4.09765625 8.48828125 C3.52539307 7.50384033 2.95312988 6.51939941 2.36352539 5.50512695 C1 3 1 3 0 0 Z " fill="#FC6525" transform="translate(131,93)"/>
<path d="M0 0 C4.04128452 -0.1457733 8.08188906 -0.23423181 12.125 -0.3125 C13.83816406 -0.3753418 13.83816406 -0.3753418 15.5859375 -0.43945312 C25.09006383 -0.5775945 25.09006383 -0.5775945 28.7421875 2.39453125 C31.73178579 5.84446561 32.47695606 7.9956085 32.40234375 12.61328125 C31.5617671 17.59961459 28.57655495 21.72980441 26 26 C24.83018493 28.06071591 23.66374817 30.12335185 22.5 32.1875 C18.25969628 39.60567868 13.93500746 46.97514177 9.62475586 54.3527832 C2.70261274 66.20796885 -4.14766765 78.10437857 -11 90 C-13.41783662 94.1963131 -15.83640662 98.39220284 -18.25564575 102.58770752 C-19.22606473 104.27098222 -20.19592519 105.95457887 -21.16577148 107.63818359 C-21.75559814 108.66121582 -22.3454248 109.68424805 -22.953125 110.73828125 C-23.47036133 111.63587158 -23.98759766 112.53346191 -24.52050781 113.45825195 C-25.9917272 115.98578745 -27.48951829 118.4957655 -29 121 C-31.7343727 118.53999112 -33.41070807 115.84026387 -35.25 112.66796875 C-35.8584375 111.62189453 -36.466875 110.57582031 -37.09375 109.49804688 C-37.7228125 108.40556641 -38.351875 107.31308594 -39 106.1875 C-39.6290625 105.10662109 -40.258125 104.02574219 -40.90625 102.91210938 C-42.62246 99.95055631 -44.33591942 96.99117455 -46 94 C-46.87398437 92.49240112 -46.87398437 92.49240112 -47.765625 90.9543457 C-49.17801188 87.57394743 -49.20643429 86.40644232 -48 83 C-47.07153588 81.12825768 -46.06569666 79.29394943 -45.0078125 77.4921875 C-44.08222534 75.90301514 -44.08222534 75.90301514 -43.13793945 74.28173828 C-42.47366943 73.15751465 -41.80939941 72.03329102 -41.125 70.875 C-40.43706127 69.69945534 -39.74981164 68.52350717 -39.06323242 67.34716797 C-37.68681924 64.99060477 -36.30696654 62.63611198 -34.92431641 60.28320312 C-32.80447943 56.66640946 -30.71034135 53.03552728 -28.62133789 49.40087891 C-23.89747451 41.18676691 -19.04129645 33.05779569 -14.14575195 24.94506836 C-11.06494201 19.8232791 -8.0797577 14.66979898 -5.28125 9.38671875 C-3.58209506 6.22152464 -1.79050855 3.11442271 0 0 Z " fill="#FB6526" transform="translate(290,93)"/>
<path d="M0 0 C-1.19912735 3.1086989 -2.48670104 6.05486749 -4.1015625 8.96875 C-4.5052002 9.69803711 -4.90883789 10.42732422 -5.32470703 11.17871094 C-5.75380371 11.94473633 -6.18290039 12.71076172 -6.625 13.5 C-7.29378174 14.69931152 -7.29378174 14.69931152 -7.97607422 15.92285156 C-11.1970977 21.66112618 -14.57609858 27.27050861 -18.0625 32.8515625 C-22.69322296 40.37648732 -26.98957185 48.10185428 -31.1875 55.875 C-33.61959325 60.3727067 -36.23937645 64.69667506 -39 69 C-43.21214589 63.95076191 -46.38303207 58.47462451 -49.65551758 52.7890625 C-50.68731129 51.00032716 -51.7309447 49.21887009 -52.77539062 47.4375 C-53.43087891 46.303125 -54.08636719 45.16875 -54.76171875 44 C-55.35944092 42.96875 -55.95716309 41.9375 -56.57299805 40.875 C-57.93043307 38.14015742 -58.7128404 36.02945355 -59 33 C-57.76195682 30.18001277 -56.27205507 27.67817863 -54.59570312 25.09912109 C-52.24622524 21.40259653 -50.63935682 18.0814392 -49.421875 13.859375 C-42.20423949 -7.43808027 -18.47200966 -1.59252579 0 0 Z " fill="#FB6526" transform="translate(270,93)"/>
<path d="M0 0 C2.42727892 2.22100208 3.9361661 4.42328328 5.48828125 7.31640625 C5.94444824 8.15848633 6.40061523 9.00056641 6.87060547 9.86816406 C7.34643066 10.75729492 7.82225586 11.64642578 8.3125 12.5625 C9.29941333 14.38225295 10.28767954 16.20127289 11.27734375 18.01953125 C11.74897949 18.88658691 12.22061523 19.75364258 12.70654297 20.64697266 C15.45111123 25.63982824 18.40004324 30.49793996 21.46875 35.296875 C21.9328125 36.02390625 22.396875 36.7509375 22.875 37.5 C23.28492188 38.1290625 23.69484375 38.758125 24.1171875 39.40625 C25 41 25 41 25 43 C24.01 43 23.02 43 22 43 C21.731875 42.05125 21.46375 41.1025 21.1875 40.125 C20.25013412 36.74732727 20.25013412 36.74732727 17 35 C15.93753473 33.03247172 14.92862192 31.03412421 14 29 C10.53898257 32.00336223 9.30647436 34.31280768 8.25 38.75 C8.00765625 39.73484375 7.7653125 40.7196875 7.515625 41.734375 C7.34546875 42.48203125 7.1753125 43.2296875 7 44 C2.91053685 40.46392751 0.750435 36.25999041 -1.75 31.5625 C-5.47786814 24.68371229 -9.38969356 17.99874051 -13.6015625 11.40625 C-15 9 -15 9 -15 7 C-11.35936737 8.21354421 -11.20756581 8.9436047 -9.51953125 12.25390625 C-9.07802734 13.10791016 -8.63652344 13.96191406 -8.18164062 14.84179688 C-7.72982422 15.73962891 -7.27800781 16.63746094 -6.8125 17.5625 C-6.34908203 18.46419922 -5.88566406 19.36589844 -5.40820312 20.29492188 C-4.26333887 22.52563676 -3.12776441 24.7606047 -2 27 C-1.01 26.34 -0.02 25.68 1 25 C3.6875 24.875 3.6875 24.875 6 25 C5.67 22.36 5.34 19.72 5 17 C5.66 17 6.32 17 7 17 C7 16.34 7 15.68 7 15 C6.01 14.67 5.02 14.34 4 14 C3.27129528 11.68529088 2.60760482 9.3494053 2 7 C1.34 6.01 0.68 5.02 0 4 C0 2.68 0 1.36 0 0 Z " fill="#170C0A" transform="translate(205,223)"/>
<path d="M0 0 C2.42376595 -0.14532829 4.79960341 -0.12521428 7.22671509 -0.05233765 C8.11031204 -0.04526291 8.993909 -0.03818817 9.90428162 -0.03089905 C12.72746325 -0.00290166 15.54866393 0.0598449 18.37124634 0.1234436 C20.28462916 0.14851964 22.19804306 0.17133403 24.11148071 0.19180298 C28.80299961 0.24694237 33.49303711 0.33325041 38.18374634 0.4359436 C36.98461899 3.54464251 35.6970453 6.49081109 34.08218384 9.4046936 C33.67854614 10.13398071 33.27490845 10.86326782 32.85903931 11.61465454 C32.42994263 12.38067993 32.00084595 13.14670532 31.55874634 13.9359436 C30.8899646 15.13525513 30.8899646 15.13525513 30.20767212 16.35879517 C26.99336501 22.08510451 23.62756029 27.68604495 20.13687134 33.2484436 C17.56756819 37.44154634 15.16010511 41.72051241 12.79653931 46.03262329 C10.39967693 50.32797831 10.39967693 50.32797831 8.18374634 51.4359436 C8.67874634 48.4659436 8.67874634 48.4659436 9.18374634 45.4359436 C9.84374634 45.4359436 10.50374634 45.4359436 11.18374634 45.4359436 C11.32812134 44.7140686 11.47249634 43.9921936 11.62124634 43.2484436 C12.14207967 40.64427694 12.662913 38.04011027 13.18374634 35.4359436 C12.52374634 35.4359436 11.86374634 35.4359436 11.18374634 35.4359436 C10.96199701 33.9795899 10.75675936 32.52071404 10.55874634 31.0609436 C10.3847229 29.84277954 10.3847229 29.84277954 10.20718384 28.6000061 C10.19944946 27.88586548 10.19171509 27.17172485 10.18374634 26.4359436 C10.84374634 25.7759436 11.50374634 25.1159436 12.18374634 24.4359436 C12.18374634 25.7559436 12.18374634 27.0759436 12.18374634 28.4359436 C12.94687134 28.3946936 13.70999634 28.3534436 14.49624634 28.3109436 C17.18374634 28.4359436 17.18374634 28.4359436 20.18374634 30.4359436 C19.68874634 25.4859436 19.68874634 25.4859436 19.18374634 20.4359436 C20.17374634 20.4359436 21.16374634 20.4359436 22.18374634 20.4359436 C22.18374634 21.7559436 22.18374634 23.0759436 22.18374634 24.4359436 C24.37944254 21.49849116 24.37944254 21.49849116 25.12124634 17.8109436 C25.64718384 16.1403186 25.64718384 16.1403186 26.18374634 14.4359436 C27.17374634 14.1059436 28.16374634 13.7759436 29.18374634 13.4359436 C31.16374634 9.4759436 33.14374634 5.5159436 35.18374634 1.4359436 C23.30374634 1.4359436 11.42374634 1.4359436 -0.81625366 1.4359436 C-0.81625366 3.4159436 -0.81625366 5.3959436 -0.81625366 7.4359436 C-0.81625366 8.4259436 -0.81625366 9.4159436 -0.81625366 10.4359436 C-3.30718177 11.68140766 -4.22706099 11.2127014 -6.81625366 10.4359436 C-6.19123971 8.75321374 -5.51447984 7.08963718 -4.81625366 5.4359436 C-4.48327271 4.56300659 -4.15029175 3.69006958 -3.80722046 2.79067993 C-1.81625366 0.4359436 -1.81625366 0.4359436 0 0 Z " fill="#F9662A" transform="translate(231.81625366210938,92.56405639648438)"/>
<path d="M0 0 C1 2 1 2 0.2578125 4.27734375 C-0.11601562 5.15519531 -0.48984375 6.03304687 -0.875 6.9375 C-2.00436445 9.61875336 -3.0793992 12.23819761 -4 15 C-5 16 -6 17 -7 18 C-7.87654694 19.47516436 -8.70834714 20.97759066 -9.5 22.5 C-11.05831251 25.49675482 -12.54631889 27.68595928 -15 30 C-17.64335251 33.80642761 -18.85903409 37.52390297 -20 42 C-19.34 42 -18.68 42 -18 42 C-17.71125 42.804375 -17.4225 43.60875 -17.125 44.4375 C-16.26737432 47.1326468 -16.26737432 47.1326468 -14 48 C-13.31522883 49.5795772 -12.69997785 51.18973194 -12.125 52.8125 C-10.64683579 56.69684881 -9.34546403 59.37142112 -6 62 C-5.34 61.34 -4.68 60.68 -4 60 C-3.01 60 -2.02 60 -1 60 C-0.67 61.65 -0.34 63.3 0 65 C0.66 65 1.32 65 2 65 C0.88243734 68.86848614 -0.02873292 71.28922757 -3 74 C-5.23075642 70.18842813 -7.45931163 66.3755736 -9.6875 62.5625 C-10.62625977 60.95858398 -10.62625977 60.95858398 -11.58398438 59.32226562 C-12.8183349 57.20900582 -14.04742657 55.09266472 -15.27099609 52.97314453 C-16.36204254 51.09701299 -17.47197635 49.23162308 -18.60791016 47.38232422 C-19.3066626 46.21660889 -19.3066626 46.21660889 -20.01953125 45.02734375 C-20.42921143 44.363396 -20.8388916 43.69944824 -21.26098633 43.01538086 C-22.27515661 40.2496142 -21.88070637 38.79963108 -21 36 C-20.01310147 34.02257654 -18.94843247 32.08308839 -17.83203125 30.17578125 C-17.18556641 29.06396484 -16.53910156 27.95214844 -15.87304688 26.80664062 C-15.18631593 25.6418575 -14.49946639 24.47714428 -13.8125 23.3125 C-12.8215332 21.6119043 -12.8215332 21.6119043 -11.81054688 19.87695312 C-7.9243239 13.22088515 -3.98281559 6.59867565 0 0 Z " fill="#D6673B" transform="translate(263,140)"/>
<path d="M0 0 C0.99 0 1.98 0 3 0 C3 0.66 3 1.32 3 2 C4.32 1.67 5.64 1.34 7 1 C7.66 2.65 8.32 4.3 9 6 C9.66 6 10.32 6 11 6 C11.33 7.98 11.66 9.96 12 12 C11.01 11.67 10.02 11.34 9 11 C8.938125 12.093125 8.87625 13.18625 8.8125 14.3125 C8 18 8 18 5.4375 19.9375 C4.633125 20.288125 3.82875 20.63875 3 21 C1.125 20.0625 1.125 20.0625 -1 18 C-3.15088958 11.44096859 -2.99503278 7.57187268 -1 1 C-0.67 0.67 -0.34 0.34 0 0 Z " fill="#0E0D0C" transform="translate(169,174)"/>
<path d="M0 0 C5.56804212 -0.27296195 11.13215984 -0.47195459 16.70532227 -0.60424805 C18.59826496 -0.65940429 20.49074229 -0.73435819 22.38208008 -0.82983398 C38.1014679 -1.60318982 38.1014679 -1.60318982 42.73388672 2.30859375 C44.55846335 5.15802466 45.79948072 7.84376615 47 11 C47.97718056 12.80421384 48.97423522 14.59795862 50 16.375 C51.00309432 18.24834641 52.00286197 20.12347642 53 22 C53.9683985 23.8005374 54.93924508 25.59974228 55.91015625 27.39892578 C57.27616237 29.93115271 58.6380943 32.46556603 60 35 C58.046875 34.1640625 58.046875 34.1640625 56 33 C55.25 30.375 55.25 30.375 55 28 C54.34 28 53.68 28 53 28 C52.68546875 27.43152344 52.3709375 26.86304687 52.046875 26.27734375 C51.61890625 25.50519531 51.1909375 24.73304687 50.75 23.9375 C50.07130859 22.70966797 50.07130859 22.70966797 49.37890625 21.45703125 C48.18175798 19.32386903 46.9418858 17.22463501 45.6875 15.125 C44 12 44 12 44 9 C42.68 8.34 41.36 7.68 40 7 C40 6.01 40 5.02 40 4 C39.34 4 38.68 4 38 4 C38 3.34 38 2.68 38 2 C26.78 2 15.56 2 4 2 C4.66 4.31 5.32 6.62 6 9 C6.66 9 7.32 9 8 9 C9.81242323 13.0188515 11.33501617 16.61110675 12 21 C9.09213774 17.32988259 6.71863867 13.38139357 4.3125 9.375 C3.89677734 8.694375 3.48105469 8.01375 3.05273438 7.3125 C0 2.23964748 0 2.23964748 0 0 Z " fill="#E56839" transform="translate(131,93)"/>
<path d="M0 0 C0.33 0.99 0.66 1.98 1 3 C0.01 4.485 0.01 4.485 -1 6 C-0.68372903 9.54223486 -0.12451909 12.62644274 1 16 C1.61875 15.505 2.2375 15.01 2.875 14.5 C5 13 5 13 7 13 C7 14.98 7 16.96 7 19 C7.66 19.33 8.32 19.66 9 20 C8.979375 21.0725 8.95875 22.145 8.9375 23.25 C8.9857984 26.14790424 9.13155885 28.28612141 10 31 C10.66 31 11.32 31 12 31 C12 32.32 12 33.64 12 35 C12.66 35 13.32 35 14 35 C14 35.66 14 36.32 14 37 C14.66 37 15.32 37 16 37 C16 36.34 16 35.68 16 35 C16.99 35 17.98 35 19 35 C19.33 34.01 19.66 33.02 20 32 C21 35 21 35 20.00390625 37.04296875 C19.52824219 37.75066406 19.05257812 38.45835937 18.5625 39.1875 C18.08941406 39.90292969 17.61632812 40.61835938 17.12890625 41.35546875 C16.75636719 41.89816406 16.38382813 42.44085938 16 43 C11.78785411 37.95076191 8.61696793 32.47462451 5.34448242 26.7890625 C4.31268871 25.00032716 3.2690553 23.21887009 2.22460938 21.4375 C1.56912109 20.303125 0.91363281 19.16875 0.23828125 18 C-0.35944092 16.96875 -0.95716309 15.9375 -1.57299805 14.875 C-2.92266212 12.15581367 -3.66759687 10.00498945 -4 7 C-2.99351778 4.3851693 -1.535407 2.37290173 0 0 Z " fill="#E56635" transform="translate(215,119)"/>
<path d="M0 0 C0.66 0 1.32 0 2 0 C5.93539131 4.06657102 7.88783712 8.84317681 10 14 C10.99 14 11.98 14 13 14 C13 16.64 13 19.28 13 22 C12.34 22 11.68 22 11 22 C11.33 23.98 11.66 25.96 12 28 C10.35 29.32 8.7 30.64 7 32 C7 29.37886292 7.31292445 27.49064888 8 25 C7.731875 25.639375 7.46375 26.27875 7.1875 26.9375 C6 29 6 29 3 30 C2.731875 30.804375 2.46375 31.60875 2.1875 32.4375 C0.54757127 37.35728619 -1.94761903 41.80297617 -5 46 C-5.66 46 -6.32 46 -7 46 C-5.66275999 42.49052974 -4.12323462 39.22658783 -2.3125 35.9375 C-1.79171875 34.98488281 -1.2709375 34.03226563 -0.734375 33.05078125 C0.46482886 30.94137086 1.70762988 28.85636982 2.984375 26.79296875 C3.62890625 25.74753906 4.2734375 24.70210937 4.9375 23.625 C5.84822266 22.19027344 5.84822266 22.19027344 6.77734375 20.7265625 C8.24525983 17.45306275 8.20381802 16.34393895 7 13 C5.87837308 10.8804748 4.68569569 8.79754525 3.4375 6.75 C0 1.07847082 0 1.07847082 0 0 Z " fill="#160B09" transform="translate(241,215)"/>
<path d="M0 0 C3.12278617 2.87892435 5.1734254 5.70447227 7.1875 9.4375 C7.69667969 10.36433594 8.20585937 11.29117187 8.73046875 12.24609375 C10.00913376 15.01981323 10.86889336 16.94708831 11 20 C9.56640625 23.11328125 9.56640625 23.11328125 7.5625 26.3125 C6.90378906 27.38113281 6.24507812 28.44976562 5.56640625 29.55078125 C5.04949219 30.35902344 4.53257812 31.16726563 4 32 C3.67 31.01 3.34 30.02 3 29 C3.33 28.34 3.66 27.68 4 27 C3.34 26.67 2.68 26.34 2 26 C2.4640625 25.01 2.4640625 25.01 2.9375 24 C4.24960255 20.29523985 4.60264135 16.90736009 5 13 C3.68 12.67 2.36 12.34 1 12 C1.020625 10.948125 1.04125 9.89625 1.0625 8.8125 C1.01103198 5.67295096 0.73482813 3.03116604 0 0 Z " fill="#FA632F" transform="translate(209,265)"/>
<path d="M0 0 C0.99 0.33 1.98 0.66 3 1 C3 1.99 3 2.98 3 4 C3.66 4 4.32 4 5 4 C5.61681641 5.24330078 5.61681641 5.24330078 6.24609375 6.51171875 C8.14982825 10.29798804 10.09010805 14.06166188 12.0625 17.8125 C12.41376953 18.49248047 12.76503906 19.17246094 13.12695312 19.87304688 C14.88425431 23.5695469 14.88425431 23.5695469 18 26 C18.72693904 27.97888961 19.39816251 29.97954558 20 32 C21.65 31.67 23.3 31.34 25 31 C25 31.66 25 32.32 25 33 C25.66 33.33 26.32 33.66 27 34 C26.34 34 25.68 34 25 34 C24.08286255 39.80853719 26.66025042 43.11751253 29.78515625 47.73046875 C30.18605469 48.47941406 30.58695313 49.22835937 31 50 C30.67 50.99 30.34 51.98 30 53 C17.81764446 32.88817821 17.81764446 32.88817821 13.4296875 24.64453125 C11.63859103 21.33149215 9.75693626 18.07452284 7.875 14.8125 C5.0758287 9.9514744 2.42773636 5.05778408 0 0 Z " fill="#D6683E" transform="translate(143,114)"/>
<path d="M0 0 C0.99 0.33 1.98 0.66 3 1 C3.71706982 2.98248715 4.38290413 4.98415349 5 7 C5.66 7.66 6.32 8.32 7 9 C8.91114577 12.58339832 10.55007128 16.20787874 12 20 C12.66 20 13.32 20 14 20 C14.12375 20.639375 14.2475 21.27875 14.375 21.9375 C14.58125 22.618125 14.7875 23.29875 15 24 C15.66 24.33 16.32 24.66 17 25 C17.73628809 26.67338202 18.4665841 28.34983896 19.15625 30.04296875 C21.47960469 35.43186089 24.81078444 40.32949464 28.046875 45.203125 C29 47 29 47 29 50 C30.485 50.495 30.485 50.495 32 51 C32 52.65 32 54.3 32 56 C29.79939584 53.9507144 28.29539192 52.01033347 26.87109375 49.3671875 C26.48107178 48.65224121 26.0910498 47.93729492 25.68920898 47.20068359 C25.27614502 46.43320801 24.86308105 45.66573242 24.4375 44.875 C21.03490713 38.64705664 17.56138107 32.47691869 13.9375 26.375 C10.53669967 20.63030485 7.17183159 14.8676047 3.875 9.0625 C3.4843335 8.38171387 3.09366699 7.70092773 2.69116211 6.99951172 C0 2.23384842 0 2.23384842 0 0 Z " fill="#D6683C" transform="translate(184,184)"/>
<path d="M0 0 C4.19679509 5.07274214 7.42255017 10.52352221 10.75 16.1875 C11.35199219 17.19748047 11.95398438 18.20746094 12.57421875 19.24804688 C13.14269531 20.21162109 13.71117187 21.17519531 14.296875 22.16796875 C14.81604492 23.04735107 15.33521484 23.9267334 15.87011719 24.83276367 C17 27 17 27 17 29 C16.443125 28.690625 15.88625 28.38125 15.3125 28.0625 C12.87459567 26.94238179 10.63775814 26.43962636 8 26 C7.67 24.68 7.34 23.36 7 22 C7.99 22 8.98 22 10 22 C10 21.01 10 20.02 10 19 C9.05125 19.185625 8.1025 19.37125 7.125 19.5625 C4 20 4 20 2 19 C2.350625 18.29875 2.70125 17.5975 3.0625 16.875 C4.19915102 13.3892702 3.95352098 11.52069284 3 8 C2.02308143 6.31970006 1.02611949 4.65071396 0 3 C0 2.01 0 1.02 0 0 Z " fill="#270C09" transform="translate(130,93)"/>
<path d="M0 0 C1.05058594 0.00193359 2.10117188 0.00386719 3.18359375 0.00585938 C4.82908203 0.02422852 4.82908203 0.02422852 6.5078125 0.04296875 C7.59707031 0.04361328 8.68632813 0.04425781 9.80859375 0.04492188 C14.56875867 0.07114065 18.97538387 0.16907475 23.6328125 1.23046875 C22.9728125 2.22046875 22.3128125 3.21046875 21.6328125 4.23046875 C21.6328125 3.57046875 21.6328125 2.91046875 21.6328125 2.23046875 C17.56907443 2.25330629 13.50813674 2.33066839 9.4453125 2.41796875 C8.29482422 2.42376953 7.14433594 2.42957031 5.95898438 2.43554688 C-0.93277664 2.36803026 -0.93277664 2.36803026 -6.60546875 5.71875 C-7.18683594 6.54761719 -7.76820312 7.37648438 -8.3671875 8.23046875 C-8.6971875 8.56046875 -9.0271875 8.89046875 -9.3671875 9.23046875 C-9.60095673 15.31515432 -9.60095673 15.31515432 -8.3671875 21.23046875 C-9.0271875 21.23046875 -9.6871875 21.23046875 -10.3671875 21.23046875 C-12.81596442 16.90103116 -13.07000352 13.11631022 -12.3671875 8.23046875 C-9.28104808 2.37744571 -6.63552579 -0.02846189 0 0 Z " fill="#340A02" transform="translate(89.3671875,90.76953125)"/>
<path d="M0 0 C-0.61488281 1.12148437 -0.61488281 1.12148437 -1.2421875 2.265625 C-1.78101563 3.25046875 -2.31984375 4.2353125 -2.875 5.25 C-3.40867188 6.22453125 -3.94234375 7.1990625 -4.4921875 8.203125 C-4.98976562 9.12609375 -5.48734375 10.0490625 -6 11 C-6.41507813 11.67546875 -6.83015625 12.3509375 -7.2578125 13.046875 C-8.27841449 15.73266971 -7.7348106 17.2357602 -7 20 C-5.79938557 22.54433433 -5.79938557 22.54433433 -4.27734375 25.08203125 C-3.73916016 26.01337891 -3.20097656 26.94472656 -2.64648438 27.90429688 C-2.08251953 28.86400391 -1.51855469 29.82371094 -0.9375 30.8125 C-0.36966797 31.79154297 0.19816406 32.77058594 0.78320312 33.77929688 C2.18254827 36.18993348 3.58829929 38.5965851 5 41 C4.01 41.495 4.01 41.495 3 42 C-1 35.25 -1 35.25 -1 33 C-1.66 33 -2.32 33 -3 33 C-3.24234375 32.48050781 -3.4846875 31.96101563 -3.734375 31.42578125 C-5.35181389 28.06026418 -6.76818932 25.26400661 -9.25 22.4375 C-11.57677288 19.19663777 -11.30544312 16.89439978 -11 13 C-10.34 13 -9.68 13 -9 13 C-8.67 11.68 -8.34 10.36 -8 9 C-7.34 9 -6.68 9 -6 9 C-6 7.35 -6 5.7 -6 4 C-6.66 3.67 -7.32 3.34 -8 3 C-5.49306588 -0.16665362 -3.91529587 -0.15379231 0 0 Z " fill="#2E0B04" transform="translate(250,163)"/>
<path d="M0 0 C0.99 0 1.98 0 3 0 C1.3748604 4.46268493 -0.84222078 8.4521206 -3.1875 12.5625 C-3.58243652 13.26560303 -3.97737305 13.96870605 -4.38427734 14.69311523 C-6.24917209 17.99851923 -8.14373348 21.26794032 -10.18359375 24.46875 C-14.23121304 30.39330666 -14.23121304 30.39330666 -14.9375 37.25 C-14.628125 38.1575 -14.31875 39.065 -14 40 C-14.99 39.34 -15.98 38.68 -17 38 C-17.88619783 31.46429103 -17.88619783 31.46429103 -15.91015625 28.19921875 C-15.00666876 27.06003887 -14.09507731 25.92724262 -13.17578125 24.80078125 C-11.15792506 21.71031048 -11.2462026 18.63148841 -11 15 C-10 13 -10 13 -7.1875 11.4375 C-2.94351941 8.76839413 -1.65199207 4.54783699 0 0 Z " fill="#2A0C04" transform="translate(227,93)"/>
<path d="M0 0 C0.99 0.33 1.98 0.66 3 1 C3 1.66 3 2.32 3 3 C3.66 3 4.32 3 5 3 C5.66 3.66 6.32 4.32 7 5 C7.33 4.34 7.66 3.68 8 3 C8.66 3 9.32 3 10 3 C12.125 9.75 12.125 9.75 11 12 C11.66 12 12.32 12 13 12 C12.67 12.99 12.34 13.98 12 15 C12.59196033 18.43336994 13.87776855 21.70812109 15 25 C10.73551226 21.35182518 8.44181377 16.79844865 5.8125 11.9375 C5.36197266 11.12216797 4.91144531 10.30683594 4.44726562 9.46679688 C2.72349443 6.32162514 1.13679909 3.41039728 0 0 Z " fill="#F9682C" transform="translate(128,192)"/>
<path d="M0 0 C2.42376595 -0.14532829 4.79960341 -0.12521428 7.22671509 -0.05233765 C8.11031204 -0.04526291 8.993909 -0.03818817 9.90428162 -0.03089905 C12.72746325 -0.00290166 15.54866393 0.0598449 18.37124634 0.1234436 C20.28462916 0.14851964 22.19804306 0.17133403 24.11148071 0.19180298 C28.80299961 0.24694237 33.49303711 0.33325041 38.18374634 0.4359436 C36.64031663 4.51699422 34.68440135 7.85167143 32.18374634 11.4359436 C31.68874634 10.4459436 31.68874634 10.4459436 31.18374634 9.4359436 C32.50374634 6.7959436 33.82374634 4.1559436 35.18374634 1.4359436 C23.30374634 1.4359436 11.42374634 1.4359436 -0.81625366 1.4359436 C-0.81625366 3.4159436 -0.81625366 5.3959436 -0.81625366 7.4359436 C-0.81625366 8.4259436 -0.81625366 9.4159436 -0.81625366 10.4359436 C-3.30718177 11.68140766 -4.22706099 11.2127014 -6.81625366 10.4359436 C-6.19123971 8.75321374 -5.51447984 7.08963718 -4.81625366 5.4359436 C-4.48327271 4.56300659 -4.15029175 3.69006958 -3.80722046 2.79067993 C-1.81625366 0.4359436 -1.81625366 0.4359436 0 0 Z " fill="#D4714D" transform="translate(231.81625366210938,92.56405639648438)"/>
<path d="M0 0 C4.04128452 -0.1457733 8.08188906 -0.23423181 12.125 -0.3125 C13.83816406 -0.3753418 13.83816406 -0.3753418 15.5859375 -0.43945312 C25.09006383 -0.5775945 25.09006383 -0.5775945 28.7421875 2.39453125 C31.72327522 5.83464459 32.44205983 7.96151241 32.43359375 12.55859375 C31.55147763 17.5254638 28.61974158 21.75851363 26 26 C24.72485508 22.17456525 25.47259587 20.66576992 27 17 C27.556875 16.525625 28.11375 16.05125 28.6875 15.5625 C30.40038246 13.89143712 30.40038246 13.89143712 29.75 10.5 C29.07822233 7.05061445 29.07822233 7.05061445 28 4 C26.7934375 3.7834375 26.7934375 3.7834375 25.5625 3.5625 C23 3 23 3 22 2 C20.54649413 1.91323745 19.08887541 1.89297119 17.6328125 1.90234375 C16.30443359 1.90717773 16.30443359 1.90717773 14.94921875 1.91210938 C14.01722656 1.92048828 13.08523438 1.92886719 12.125 1.9375 C10.73861328 1.94426758 10.73861328 1.94426758 9.32421875 1.95117188 C7.60301449 1.95991529 5.88181862 1.97070278 4.16064453 1.98413086 C2.44046795 1.99676492 0.72022298 2 -1 2 C-0.67 1.34 -0.34 0.68 0 0 Z " fill="#D46C46" transform="translate(290,93)"/>
<path d="M0 0 C0.33 0.99 0.66 1.98 1 3 C0.525625 3.763125 0.05125 4.52625 -0.4375 5.3125 C-2.27506927 7.89810348 -2.27506927 7.89810348 -1.8125 10.875 C-2.08886482 15.48108026 -4.7231531 17.91840563 -8 21 C-8.66 21.33 -9.32 21.66 -10 22 C-10.93393441 23.655611 -11.80102783 25.34950522 -12.625 27.0625 C-13.07101562 27.98160156 -13.51703125 28.90070313 -13.9765625 29.84765625 C-14.31429688 30.55792969 -14.65203125 31.26820313 -15 32 C-15.99 32 -16.98 32 -18 32 C-12.13161346 21.25484235 -6.26528722 10.52055056 0 0 Z " fill="#2F0B05" transform="translate(279,181)"/>
<path d="M0 0 C1.32 0.33 2.64 0.66 4 1 C-1.9257971 11.71014968 -7.89405417 22.39134551 -14 33 C-14.33 33 -14.66 33 -15 33 C-15.1875 30.6875 -15.1875 30.6875 -15 28 C-14.00138026 26.99862164 -13.00123228 25.9987662 -12 25 C-11.08304688 23.06928979 -11.08304688 23.06928979 -10.4375 21 C-9.50700205 18.22427731 -8.66958731 16.50438097 -7 14 C-7 13.34 -7 12.68 -7 12 C-6.01 12 -5.02 12 -4 12 C-4.061875 10.88625 -4.12375 9.7725 -4.1875 8.625 C-4.125625 7.42875 -4.06375 6.2325 -4 5 C-3.01 4.34 -2.02 3.68 -1 3 C-0.67 2.01 -0.34 1.02 0 0 Z " fill="#D9693A" transform="translate(288,159)"/>
<path d="M0 0 C3.28745654 4.27115726 6.00439185 8.80648063 8.75 13.4375 C9.26949219 14.28376953 9.78898438 15.13003906 10.32421875 16.00195312 C10.81019531 16.82501953 11.29617187 17.64808594 11.796875 18.49609375 C12.24385742 19.24044678 12.69083984 19.9847998 13.15136719 20.75170898 C14.225677 23.59788822 13.88385984 25.1221735 13 28 C11.4375 30.8125 11.4375 30.8125 10 33 C8.875 29.25 8.875 29.25 10 27 C10.66 27 11.32 27 12 27 C11.35699811 25.51960029 10.71051501 24.04071218 10.0625 22.5625 C9.70285156 21.73878906 9.34320313 20.91507813 8.97265625 20.06640625 C8.16877677 18.05589883 8.16877677 18.05589883 7 17 C6.34 17.99 5.68 18.98 5 20 C3.95649436 16.60860667 4 13.52869911 4 10 C3.67 9.01 3.34 8.02 3 7 C2.34 7 1.68 7 1 7 C0.67 4.69 0.34 2.38 0 0 Z " fill="#E06A39" transform="translate(236,207)"/>
<path d="M0 0 C0.66 0 1.32 0 2 0 C2.6875 2.3125 2.6875 2.3125 3 5 C1.48656345 7.0179154 0.25060133 7.87469934 -2 9 C-1.34 9.33 -0.68 9.66 0 10 C0 11.98 0 13.96 0 16 C-1.32 16.33 -2.64 16.66 -4 17 C-4.33 16.01 -4.66 15.02 -5 14 C-6.32 15.98 -7.64 17.96 -9 20 C-9.66 19.67 -10.32 19.34 -11 19 C-9.2204041 15.82640211 -7.42438252 12.66241477 -5.625 9.5 C-5.11710937 8.59378906 -4.60921875 7.68757813 -4.0859375 6.75390625 C-3.59609375 5.89667969 -3.10625 5.03945312 -2.6015625 4.15625 C-2.15119629 3.36025391 -1.70083008 2.56425781 -1.23681641 1.74414062 C-0.82866699 1.16857422 -0.42051758 0.59300781 0 0 Z " fill="#200C05" transform="translate(270,93)"/>
<path d="M0 0 C1.32 0 2.64 0 4 0 C4.33 1.65 4.66 3.3 5 5 C5.66 5 6.32 5 7 5 C5.88243734 8.86848614 4.97126708 11.28922757 2 14 C1.15556432 12.75747321 0.3248542 11.5056114 -0.5 10.25 C-0.9640625 9.55390625 -1.428125 8.8578125 -1.90625 8.140625 C-3 6 -3 6 -3 2 C-2.34 2 -1.68 2 -1 2 C-0.67 1.34 -0.34 0.68 0 0 Z " fill="#F8662C" transform="translate(258,200)"/>
<path d="M0 0 C0.66 0 1.32 0 2 0 C2.4031543 0.72590332 2.80630859 1.45180664 3.22167969 2.19970703 C4.73301645 4.91811661 6.2466192 7.63524856 7.76171875 10.3515625 C8.73350016 12.09539159 9.70271016 13.84065285 10.671875 15.5859375 C11.290625 16.69453125 11.909375 17.803125 12.546875 18.9453125 C13.39523926 20.46922607 13.39523926 20.46922607 14.26074219 22.02392578 C16.0638041 25.10917631 17.99009392 28.0467472 20 31 C19.67 31.66 19.34 32.32 19 33 C17.82479354 31.40207898 16.66008753 29.79643092 15.5 28.1875 C14.8503125 27.29417969 14.200625 26.40085938 13.53125 25.48046875 C12 23 12 23 12 20 C10.68 20 9.36 20 8 20 C7.855625 19.0925 7.71125 18.185 7.5625 17.25 C7.13590527 14.78523044 6.64925779 12.41152893 6 10 C4.35 10 2.7 10 1 10 C1.66 8.35 2.32 6.7 3 5 C2.34 5 1.68 5 1 5 C0.67 3.35 0.34 1.7 0 0 Z " fill="#DC6837" transform="translate(179,214)"/>
<path d="M0 0 C0.66 0 1.32 0 2 0 C0.22638115 5.08368657 -2.53602752 9.5652515 -5.25 14.1875 C-5.74290527 15.03159424 -6.23581055 15.87568848 -6.74365234 16.74536133 C-8.15895424 19.16563475 -9.57923889 21.58292885 -11 24 C-11.67463018 25.15616189 -12.34913285 26.31239822 -13.0234375 27.46875 C-15.97002668 32.47076481 -15.97002668 32.47076481 -17 34 C-17.33 34 -17.66 34 -18 34 C-18.37656854 30.70502527 -18.28684039 29.37903909 -16.25 26.6875 C-15.5075 25.800625 -14.765 24.91375 -14 24 C-11.64055128 19.83277222 -9.68106098 15.48282929 -8 11 C-7.01 11 -6.02 11 -5 11 C-4.9175 10.484375 -4.835 9.96875 -4.75 9.4375 C-3.67859775 5.95544268 -1.86476395 3.12799115 0 0 Z " fill="#2D0B02" transform="translate(268,128)"/>
<path d="M0 0 C2.33524782 2.25740623 4.18705073 4.2805761 6 7 C6 7.99 6 8.98 6 10 C7.32 9.67 8.64 9.34 10 9 C10.103125 10.2375 10.20625 11.475 10.3125 12.75 C10.7423119 16.327552 11.57776909 18.26182593 14 21 C14 21.66 14 22.32 14 23 C14.66 23 15.32 23 16 23 C16.10957031 23.56589844 16.21914062 24.13179688 16.33203125 24.71484375 C16.56986328 25.81505859 16.56986328 25.81505859 16.8125 26.9375 C16.96332031 27.66839844 17.11414063 28.39929688 17.26953125 29.15234375 C17.51058594 29.76207031 17.75164062 30.37179687 18 31 C18.99 31.33 19.98 31.66 21 32 C20.67 33.32 20.34 34.64 20 36 C14.98112748 28.04361092 10.19105876 19.96617261 5.5 11.8125 C4.68934082 10.41318237 4.68934082 10.41318237 3.86230469 8.9855957 C3.36118164 8.10991943 2.86005859 7.23424316 2.34375 6.33203125 C1.89193359 5.54546143 1.44011719 4.7588916 0.97460938 3.94848633 C0 2 0 2 0 0 Z " fill="#DC6B3D" transform="translate(166,257)"/>
<path d="M0 0 C1.2418027 3.72540809 0.54830353 4.49594465 -1 8 C-1.28875 8.99 -1.5775 9.98 -1.875 11 C-3.1038132 14.2768352 -4.80283971 16.30670674 -7 19 C-7.77833534 21.18214568 -7.77833534 21.18214568 -8 23 C-9.65 23.33 -11.3 23.66 -13 24 C-11.31784705 19.33751086 -8.94630388 15.16580137 -6.5 10.875 C-6.09652344 10.15957031 -5.69304687 9.44414063 -5.27734375 8.70703125 C-3.59332535 5.73359942 -1.89727817 2.84591726 0 0 Z " fill="#2A0D08" transform="translate(258,114)"/>
<path d="M0 0 C0.99 0.495 0.99 0.495 2 1 C2.33 1.99 2.66 2.98 3 4 C3.804375 4.309375 4.60875 4.61875 5.4375 4.9375 C8.52921144 6.21942913 8.63533604 7.08871689 10 10 C12.0335948 11.26804566 12.0335948 11.26804566 14 12 C14.99 11.34 15.98 10.68 17 10 C17.99 10 18.98 10 20 10 C20 9.01 20 8.02 20 7 C21.32 7.33 22.64 7.66 24 8 C19.80758159 11.98791019 17.06121159 14.10823592 11 14 C6.01456534 11.60699136 2.55491484 7.87242609 0 3 C0 2.01 0 1.02 0 0 Z " fill="#E36833" transform="translate(187,293)"/>
<path d="M0 0 C3 1 3 1 4.71875 4.08984375 C5.32245879 5.36773835 5.91583598 6.6505535 6.5 7.9375 C8.80257056 13.1798903 8.80257056 13.1798903 13 17 C13.36442233 18.66014616 13.69972883 20.32706064 14 22 C14.66 22.33 15.32 22.66 16 23 C17.04718798 25.31254012 18.04346365 27.6485148 19 30 C19.4125 30.7425 19.825 31.485 20.25 32.25 C21 34 21 34 20 37 C19.21875 35.6328125 18.4375 34.265625 17.65625 32.8984375 C16.90456543 31.5832312 16.90456543 31.5832312 16.13769531 30.24145508 C15.04273371 28.32494581 13.94833581 26.40811437 12.85449219 24.4909668 C10.38977712 20.172614 7.92221982 15.85643527 5.421875 11.55859375 C4.8640332 10.59590576 4.8640332 10.59590576 4.29492188 9.61376953 C3.30888471 7.91400733 2.3186373 6.21668952 1.328125 4.51953125 C0 2 0 2 0 0 Z " fill="#D4673C" transform="translate(107,155)"/>
<path d="M0 0 C0.66 0.33 1.32 0.66 2 1 C-2.20060161 8.42141028 -6.40163385 15.8150529 -11 23 C-11.66 22.01 -12.32 21.02 -13 20 C-12.67 19.34 -12.34 18.68 -12 18 C-11.34 18.33 -10.68 18.66 -10 19 C-10.33 15.7 -10.66 12.4 -11 9 C-10.01 9 -9.02 9 -8 9 C-8 10.32 -8 11.64 -8 13 C-5.80430379 10.06254756 -5.80430379 10.06254756 -5.0625 6.375 C-4.711875 5.26125 -4.36125 4.1475 -4 3 C-3.01 2.67 -2.02 2.34 -1 2 C-0.67 1.34 -0.34 0.68 0 0 Z " fill="#EA6A35" transform="translate(262,104)"/>
<path d="M0 0 C3.9287418 1.47807713 5.8975046 2.27284905 8 6 C9.10600361 8.96786898 10.05212691 11.97865451 11 15 C12.10026949 18.79718947 12.10026949 18.79718947 15 21 C14.67 22.32 14.34 23.64 14 25 C8.83146933 16.86677915 4.14500598 8.71393303 0 0 Z " fill="#DD6A39" transform="translate(143,218)"/>
<path d="M0 0 C0.99 0 1.98 0 3 0 C3.0825 0.598125 3.165 1.19625 3.25 1.8125 C3.80740394 4.15279112 3.80740394 4.15279112 5.9375 5.3125 C8.89040411 7.72851245 9.17790647 10.36908691 10 14 C10.66 14 11.32 14 12 14 C12.33 16.31 12.66 18.62 13 21 C13.66 21 14.32 21 15 21 C17.125 25.625 17.125 25.625 16 29 C13.71862417 25.03224148 11.44003694 21.06290034 9.1640625 17.09204102 C8.3887934 15.74036063 7.61275302 14.38912233 6.8359375 13.03833008 C5.72194427 11.10091965 4.61070004 9.16195603 3.5 7.22265625 C3.15001953 6.61535172 2.80003906 6.00804718 2.43945312 5.38233948 C0 1.11387171 0 1.11387171 0 0 Z " fill="#310A04" transform="translate(183,114)"/>
<path d="M0 0 C3.98595705 3.41653461 5.84656201 7.32916266 8 12 C8.33 12.66 8.66 13.32 9 14 C5.7 13.34 2.4 12.68 -1 12 C-1.33 10.35 -1.66 8.7 -2 7 C-1.34 7 -0.68 7 0 7 C0 4.69 0 2.38 0 0 Z " fill="#1A0C08" transform="translate(183,289)"/>
<path d="M0 0 C0 3.51034102 -0.77302138 4.57482351 -2.625 7.5 C-5.51458702 12.15620657 -8.14335007 16.90569475 -10.703125 21.75 C-12 24 -12 24 -14 26 C-14.99 24.02 -15.98 22.04 -17 20 C-14.525 20.99 -14.525 20.99 -12 22 C-12.33 20.02 -12.66 18.04 -13 16 C-11.35 15.67 -9.7 15.34 -8 15 C-7.88527344 14.44699219 -7.77054688 13.89398438 -7.65234375 13.32421875 C-6.8978634 10.63610013 -5.80634915 8.31127113 -4.5625 5.8125 C-3.91474609 4.49185547 -3.91474609 4.49185547 -3.25390625 3.14453125 C-2 1 -2 1 0 0 Z " fill="#E06B3D" transform="translate(244,240)"/>
<path d="M0 0 C0.99 0.495 0.99 0.495 2 1 C2 1.66 2 2.32 2 3 C2.66 3 3.32 3 4 3 C4.556875 4.2065625 4.556875 4.2065625 5.125 5.4375 C6.49299469 8.19930061 8.11214987 10.66135393 9.875 13.1875 C13.2100342 18.11064572 16.13335851 23.3350681 18 29 C17.67 29.99 17.34 30.98 17 32 C16.443125 31.00742188 15.88625 30.01484375 15.3125 28.9921875 C14.54168848 27.61977942 13.77085339 26.24738457 13 24.875 C12.59789307 24.15812012 12.19578613 23.44124023 11.78149414 22.70263672 C9.74942031 19.08590354 7.70491501 15.47783048 5.62109375 11.890625 C5.25306641 11.25527832 4.88503906 10.61993164 4.50585938 9.96533203 C3.48498171 8.20679094 2.45940099 6.4509826 1.43359375 4.6953125 C0 2 0 2 0 0 Z " fill="#D96941" transform="translate(84,115)"/>
<path d="M0 0 C1.49080078 -0.02416992 1.49080078 -0.02416992 3.01171875 -0.04882812 C12.26130035 -0.05501928 12.26130035 -0.05501928 16.125 3.3125 C16.9375 5.5 16.9375 5.5 17.125 7.3125 C16.40054687 6.66796875 15.67609375 6.0234375 14.9296875 5.359375 C9.95545018 2.04321679 4.02007721 2.63413753 -1.75 2.5625 C-2.9153125 2.53285156 -4.080625 2.50320312 -5.28125 2.47265625 C-8.14590195 2.40221399 -11.00975205 2.34938887 -13.875 2.3125 C-9.42643497 -0.65321002 -5.23274385 -0.01683637 0 0 Z " fill="#380A00" transform="translate(303.875,90.6875)"/>
<path d="M0 0 C3.51879289 4.11739214 6.17115167 8.48751626 8.8125 13.1875 C9.44188477 14.27321289 9.44188477 14.27321289 10.08398438 15.38085938 C11.12155299 17.21839852 12.06890531 19.10628371 13 21 C12.67 21.66 12.34 22.32 12 23 C9.61405803 21.80702902 9.16265153 20.85642735 7.875 18.5625 C7.52179688 17.94503906 7.16859375 17.32757813 6.8046875 16.69140625 C6 15 6 15 6 13 C5.01 13.33 4.02 13.66 3 14 C2.49528803 12.23050388 1.99639315 10.45934777 1.5 8.6875 C1.2215625 7.70136719 0.943125 6.71523438 0.65625 5.69921875 C0 3 0 3 0 0 Z " fill="#330D05" transform="translate(170,266)"/>
<path d="M0 0 C3.12278617 2.87892435 5.1734254 5.70447227 7.1875 9.4375 C7.69667969 10.36433594 8.20585937 11.29117187 8.73046875 12.24609375 C9.95848044 14.9099345 10.74449556 17.07923353 11 20 C10.34 20.66 9.68 21.32 9 22 C8.01 18.7 7.02 15.4 6 12 C4.68 12.33 3.36 12.66 2 13 C1.05675742 8.68803391 0.51958285 4.37934119 0 0 Z " fill="#EA6532" transform="translate(209,265)"/>
<path d="M0 0 C0.33 0.99 0.66 1.98 1 3 C1.66 3.33 2.32 3.66 3 4 C2.67 4.99 2.34 5.98 2 7 C1.01 7 0.02 7 -1 7 C-1 7.66 -1 8.32 -1 9 C-0.01 9.33 0.98 9.66 2 10 C1.67 12.64 1.34 15.28 1 18 C-2.94463583 14.22687008 -2.94463583 14.22687008 -3.09765625 10.8359375 C-3.08605469 10.02382812 -3.07445313 9.21171875 -3.0625 8.375 C-3.05347656 7.55773437 -3.04445313 6.74046875 -3.03515625 5.8984375 C-3.02355469 5.27195312 -3.01195313 4.64546875 -3 4 C-2.34 4 -1.68 4 -1 4 C-0.67 2.68 -0.34 1.36 0 0 Z " fill="#F06832" transform="translate(83,97)"/>
<path d="M0 0 C3 1 3 1 4.09765625 2.8125 C4.41605469 3.534375 4.73445312 4.25625 5.0625 5 C6.32230077 8.1514696 6.32230077 8.1514696 9 10 C10.23882213 13.27923505 11.21205747 16.58558238 12 20 C12.66 20 13.32 20 14 20 C15.4216319 23.3171411 16.39009109 26.44219804 17 30 C13.46165594 26.05338547 11.12891968 21.7095841 8.66015625 17.0625 C6.33777365 12.77838716 3.82958977 8.61029119 1.3203125 4.43359375 C0 2 0 2 0 0 Z " fill="#370B04" transform="translate(211,162)"/>
<path d="M0 0 C0.33 0 0.66 0 1 0 C0.25531915 7.74468085 0.25531915 7.74468085 -3 11 C-3.66 11 -4.32 11 -5 11 C-5.33 12.98 -5.66 14.96 -6 17 C-6.66 17 -7.32 17 -8 17 C-8 17.99 -8 18.98 -8 20 C-8.66 20.33 -9.32 20.66 -10 21 C-10.33 21.99 -10.66 22.98 -11 24 C-11.66 24 -12.32 24 -13 24 C-11.42495664 18.01483522 -8.24803651 13.19048972 -5 8 C-4.5153125 7.20078125 -4.030625 6.4015625 -3.53125 5.578125 C-0.99175809 1.41453943 -0.99175809 1.41453943 0 0 Z " fill="#D46A3A" transform="translate(277,116)"/>
<path d="M0 0 C2.97374069 2.75723709 4.93963041 5.34828306 6.8125 8.9375 C7.31652344 9.89140625 7.82054687 10.8453125 8.33984375 11.828125 C8.88769531 12.87484375 9.43554688 13.9215625 10 15 C11.28575834 17.39902888 12.58095242 19.79293502 13.875 22.1875 C14.91696766 24.12483814 15.95874451 26.06227899 17 28 C15.046875 27.1640625 15.046875 27.1640625 13 26 C12.25 23.375 12.25 23.375 12 21 C11.34 21 10.68 21 10 21 C0 3.38297872 0 3.38297872 0 0 Z " fill="#CF673A" transform="translate(174,100)"/>
<path d="M0 0 C0.99 0.33 1.98 0.66 3 1 C3 1.66 3 2.32 3 3 C3.66 3 4.32 3 5 3 C5 4.32 5 5.64 5 7 C5.66 7 6.32 7 7 7 C7 7.66 7 8.32 7 9 C7.66 9 8.32 9 9 9 C9 8.34 9 7.68 9 7 C9.99 7 10.98 7 12 7 C12.33 6.01 12.66 5.02 13 4 C14 7 14 7 13.00390625 9.04296875 C12.52824219 9.75066406 12.05257812 10.45835937 11.5625 11.1875 C11.08941406 11.90292969 10.61632812 12.61835938 10.12890625 13.35546875 C9.57009766 14.16951172 9.57009766 14.16951172 9 15 C4.95808535 10.50898372 2.56325559 5.41015011 0 0 Z " fill="#D86B3C" transform="translate(222,147)"/>
<path d="M0 0 C0.6875 1.625 0.6875 1.625 1 4 C-0.31891553 7.0994515 -1.85142085 9.78243767 -3.75 12.5625 C-5.27088726 15.52823015 -4.98030469 16.88084871 -4 20 C-4.99 20 -5.98 20 -7 20 C-7.33 19.67 -7.66 19.34 -8 19 C-8.66 19.99 -9.32 20.98 -10 22 C-10.66 21.67 -11.32 21.34 -12 21 C-11.67201416 20.43490723 -11.34402832 19.86981445 -11.00610352 19.28759766 C-9.52428647 16.7337552 -8.0433824 14.17938452 -6.5625 11.625 C-5.7880957 10.29082031 -5.7880957 10.29082031 -4.99804688 8.9296875 C-4.50498047 8.07890625 -4.01191406 7.228125 -3.50390625 6.3515625 C-3.04830322 5.56604004 -2.5927002 4.78051758 -2.12329102 3.97119141 C-1.38010364 2.66701952 -0.67129603 1.34259205 0 0 Z " fill="#270B03" transform="translate(313,122)"/>
<path d="M0 0 C2 0 2 0 3.625 1.5 C4.07875 1.995 4.5325 2.49 5 3 C5.99 2.67 6.98 2.34 8 2 C10 5 10 5 9.625 7.1875 C9.41875 7.785625 9.2125 8.38375 9 9 C8.67 7.68 8.34 6.36 8 5 C7.34 5 6.68 5 6 5 C7.96071113 9.7049956 7.96071113 9.7049956 10.25 14.25 C11 16 11 16 10 19 C8.51762714 16.39761208 7.03899869 13.79321772 5.5625 11.1875 C4.93118164 10.08051758 4.93118164 10.08051758 4.28710938 8.95117188 C3.88427734 8.23896484 3.48144531 7.52675781 3.06640625 6.79296875 C2.69459229 6.1383667 2.32277832 5.48376465 1.93969727 4.80932617 C1 3 1 3 0 0 Z " fill="#230B07" transform="translate(126,119)"/>
<path d="M0 0 C0.66 0 1.32 0 2 0 C2.99 3.96 3.98 7.92 5 12 C2.525 13.485 2.525 13.485 0 15 C-1.41455894 16.9937797 -1.41455894 16.9937797 -2.3125 19.1875 C-2.63863281 19.90292969 -2.96476562 20.61835937 -3.30078125 21.35546875 C-3.53152344 21.89816406 -3.76226562 22.44085938 -4 23 C-4.66 23 -5.32 23 -6 23 C-5.12209406 20.65891748 -4.23444726 18.40357142 -2.9765625 16.23828125 C0.16582263 10.74467887 0.46181545 6.260165 0 0 Z " fill="#230D05" transform="translate(321,98)"/>
<path d="M0 0 C1.5 1.375 1.5 1.375 3 3 C3 3.66 3 4.32 3 5 C3.598125 5.185625 4.19625 5.37125 4.8125 5.5625 C8.09981799 7.72273753 8.64854687 10.35107655 10 14 C5.79373966 12.49776416 4.26099979 9.71449966 2 6 C1.401875 6.350625 0.80375 6.70125 0.1875 7.0625 C-2 8 -2 8 -5 7 C-4.360625 6.21625 -3.72125 5.4325 -3.0625 4.625 C-1.01857687 2.20460719 -1.01857687 2.20460719 0 0 Z " fill="#120A09" transform="translate(250,200)"/>
<path d="M0 0 C0.66 0 1.32 0 2 0 C2 1.32 2 2.64 2 4 C2.99 4 3.98 4 5 4 C5.33 5.32 5.66 6.64 6 8 C4.68 7.34 3.36 6.68 2 6 C2 10.71906188 3.28754204 12.27037031 6 16 C5.34 16.66 4.68 17.32 4 18 C2.8538027 15.8751956 1.70802708 13.75016569 0.5625 11.625 C0.23701172 11.02171875 -0.08847656 10.4184375 -0.42382812 9.796875 C-2.88671875 5.2265625 -2.88671875 5.2265625 -4 3 C-3.01 3 -2.02 3 -1 3 C-0.67 2.01 -0.34 1.02 0 0 Z " fill="#230C04" transform="translate(178,96)"/>
<path d="M0 0 C0.99 0.33 1.98 0.66 3 1 C3.80967438 3.91482778 4.21845993 5.46113217 3.0625 8.3125 C2.711875 8.869375 2.36125 9.42625 2 10 C1.34 10 0.68 10 0 10 C-0.12375 10.53625 -0.2475 11.0725 -0.375 11.625 C-1.12206016 14.4638286 -2.05303364 17.22223202 -3 20 C-3.66 20 -4.32 20 -5 20 C-5.33 21.32 -5.66 22.64 -6 24 C-6.99 23.67 -7.98 23.34 -9 23 C-8.6918335 22.51644043 -8.38366699 22.03288086 -8.06616211 21.53466797 C-6.6721334 19.32545332 -5.30484241 17.10082111 -3.9375 14.875 C-3.45216797 14.11445313 -2.96683594 13.35390625 -2.46679688 12.5703125 C0.41918899 7.8688494 0.41918899 7.8688494 0.80859375 2.4453125 C0.54175781 1.63835937 0.27492187 0.83140625 0 0 Z " fill="#3C1003" transform="translate(218,279)"/>
<path d="M0 0 C3.61798643 1.20599548 3.78284138 1.90807177 5.48046875 5.18359375 C5.92197266 6.02857422 6.36347656 6.87355469 6.81835938 7.74414062 C7.27017578 8.63294922 7.72199219 9.52175781 8.1875 10.4375 C8.65091797 11.32244141 9.11433594 12.20738281 9.59179688 13.11914062 C13 19.70967185 13 19.70967185 13 22 C13.66 22 14.32 22 15 22 C15.33 23.65 15.66 25.3 16 27 C12.59209865 23.92766881 10.65050421 20.81992044 8.5625 16.75 C6.52041447 12.83746975 4.45718908 9.02018621 2.0625 5.3125 C0 2 0 2 0 0 Z " fill="#390C03" transform="translate(190,230)"/>
<path d="M0 0 C4.42679007 1.47559669 4.91432696 3.90057368 7 8 C7 8.66 7 9.32 7 10 C7.66 10 8.32 10 9 10 C9.86883706 11.57533086 10.71959068 13.16064509 11.5625 14.75 C12.03816406 15.63171875 12.51382813 16.5134375 13.00390625 17.421875 C14.07998186 20.20701188 14.06528748 21.26980214 13 24 C12.64808594 23.33355469 12.29617187 22.66710937 11.93359375 21.98046875 C8.65733071 15.86420746 5.15405421 9.99864888 1.3203125 4.21484375 C0 2 0 2 0 0 Z " fill="#3D0E05" transform="translate(154,168)"/>
<path d="M0 0 C3.78985578 4.37564145 6.5186798 9.15058386 9.3125 14.1875 C9.77978516 15.00669922 10.24707031 15.82589844 10.72851562 16.66992188 C11.16486328 17.45302734 11.60121094 18.23613281 12.05078125 19.04296875 C12.64886597 20.11067505 12.64886597 20.11067505 13.2590332 21.19995117 C13.50355225 21.79396729 13.74807129 22.3879834 14 23 C13.67 23.66 13.34 24.32 13 25 C12.566875 24.236875 12.13375 23.47375 11.6875 22.6875 C10.18957358 20.06055486 10.18957358 20.06055486 8.4375 18.5 C6.5581652 16.53895499 6.0113516 14.528379 5 12 C3.71477414 9.95828044 2.38702255 7.95504737 1.0234375 5.96484375 C0 4 0 4 0 0 Z " fill="#350D03" transform="translate(100,145)"/>
<path d="M0 0 C3.09164355 4.02363355 5.66175789 8.26739464 8.25 12.625 C8.72179687 13.40101563 9.19359375 14.17703125 9.6796875 14.9765625 C10.12054688 15.7190625 10.56140625 16.4615625 11.015625 17.2265625 C11.42071289 17.90283691 11.82580078 18.57911133 12.24316406 19.27587891 C12.49291992 19.84483887 12.74267578 20.41379883 13 21 C12.67 21.66 12.34 22.32 12 23 C11.34 23 10.68 23 10 23 C9.7525 22.0925 9.505 21.185 9.25 20.25 C8.26123844 16.99768784 8.26123844 16.99768784 6.125 15.1875 C2.04263155 10.98506189 0 5.80829285 0 0 Z " fill="#330D06" transform="translate(218,141)"/>
<path d="M0 0 C3.51879289 4.11739214 6.17115167 8.48751626 8.8125 13.1875 C9.44188477 14.27321289 9.44188477 14.27321289 10.08398438 15.38085938 C11.12155299 17.21839852 12.06890531 19.10628371 13 21 C12.67 21.66 12.34 22.32 12 23 C11.38125 22.01 10.7625 21.02 10.125 20 C9.42375 19.01 8.7225 18.02 8 17 C7.34 17 6.68 17 6 17 C4.66666667 13 3.33333333 9 2 5 C1.34 5 0.68 5 0 5 C0 3.35 0 1.7 0 0 Z " fill="#DB683B" transform="translate(218,176)"/>
<path d="M0 0 C2.93451379 2.75627868 5.11897397 5.48641158 7.1875 8.9375 C7.69667969 9.77152344 8.20585937 10.60554687 8.73046875 11.46484375 C10.00566478 14.01131214 10.58356496 16.19533506 11 19 C8.36275317 17.32974367 7.15355168 16.39347618 6 13.4375 C5.26493562 10.83477398 5.26493562 10.83477398 2.984375 10.13671875 C1 9 1 9 0.390625 6.8359375 C0.34421875 6.02382812 0.2978125 5.21171875 0.25 4.375 C0.19328125 3.55773437 0.1365625 2.74046875 0.078125 1.8984375 C0.05234375 1.27195313 0.0265625 0.64546875 0 0 Z " fill="#DF6A38" transform="translate(154,170)"/>
<path d="M0 0 C0.66 0 1.32 0 2 0 C2 0.66 2 1.32 2 2 C3.32 2 4.64 2 6 2 C4.68315519 6.60895683 2.84801255 10.14140235 0 14 C-0.33 14 -0.66 14 -1 14 C-0.67 9.38 -0.34 4.76 0 0 Z " fill="#E86730" transform="translate(306,122)"/>
<path d="M0 0 C13.2 0 26.4 0 40 0 C39.67 0.66 39.34 1.32 39 2 C27.12 1.67 15.24 1.34 3 1 C2.67 2.32 2.34 3.64 2 5 C1.34 3.35 0.68 1.7 0 0 Z " fill="#D4704F" transform="translate(131,93)"/>
<path d="M0 0 C0 0.66 0 1.32 0 2 C0.66 2.33 1.32 2.66 2 3 C1.34 3 0.68 3 0 3 C-0.91713745 8.80853719 1.66025042 12.11751253 4.78515625 16.73046875 C5.18605469 17.47941406 5.58695313 18.22835937 6 19 C5.67 19.99 5.34 20.98 5 22 C0.62464494 15.0860031 -2.77856859 9.14287603 -4 1 C-2 0 -2 0 0 0 Z " fill="#E86734" transform="translate(168,145)"/>
<path d="M0 0 C2.90786226 3.67011741 5.28136133 7.61860643 7.6875 11.625 C8.10322266 12.305625 8.51894531 12.98625 8.94726562 13.6875 C12 18.76035252 12 18.76035252 12 21 C11.01 21 10.02 21 9 21 C8.54625 19.865625 8.0925 18.73125 7.625 17.5625 C6.42904194 13.95278308 6.42904194 13.95278308 4 13 C1.86392488 8.64240676 0.59197472 4.85419266 0 0 Z " fill="#2E0C04" transform="translate(147,122)"/>
<path d="M0 0 C0.33 0.66 0.66 1.32 1 2 C0.01 3.485 0.01 3.485 -1 5 C-0.69159401 7.15274948 -0.69159401 7.15274948 0 9 C-1.32 9 -2.64 9 -4 9 C-4 8.34 -4 7.68 -4 7 C-5.27875 6.690625 -6.5575 6.38125 -7.875 6.0625 C-10.10101675 5.52394756 -11.94739999 5.0263 -14 4 C-14 3.34 -14 2.68 -14 2 C-13.40832031 2.10699219 -12.81664062 2.21398437 -12.20703125 2.32421875 C-6.94236509 3.15099991 -6.94236509 3.15099991 -1.9375 1.5625 C-1.298125 1.046875 -0.65875 0.53125 0 0 Z " fill="#280F06" transform="translate(208,303)"/>
<path d="M0 0 C1 3 1 3 -0.328125 5.9609375 C-0.96234375 7.08757812 -1.5965625 8.21421875 -2.25 9.375 C-2.87390625 10.49648437 -3.4978125 11.61796875 -4.140625 12.7734375 C-4.75421875 13.83820313 -5.3678125 14.90296875 -6 16 C-6.53109375 16.96164062 -7.0621875 17.92328125 -7.609375 18.9140625 C-8.06828125 19.60242188 -8.5271875 20.29078125 -9 21 C-9.66 21 -10.32 21 -11 21 C-9.60966128 17.32790921 -7.95933171 13.93649918 -6.0625 10.5 C-5.55847656 9.5821875 -5.05445313 8.664375 -4.53515625 7.71875 C-3.06655179 5.11786271 -1.54956937 2.55332028 0 0 Z " fill="#3D0F04" transform="translate(245,240)"/>
<path d="M0 0 C3.24822479 2.77687356 5.12183056 6.39061382 7.1875 10.0625 C7.55552734 10.69994141 7.92355469 11.33738281 8.30273438 11.99414062 C11 16.74312964 11 16.74312964 11 19 C10.34 19 9.68 19 9 19 C7.7109375 17.35546875 7.7109375 17.35546875 6.375 15.1875 C5.92898437 14.47980469 5.48296875 13.77210938 5.0234375 13.04296875 C4 11 4 11 4 8 C3.01 8 2.02 8 1 8 C0.67 5.36 0.34 2.72 0 0 Z " fill="#320C05" transform="translate(194,204)"/>
<path d="M0 0 C3.50297874 4.02193856 9 10.39433144 9 16 C8.01 16.33 7.02 16.66 6 17 C5.67 17.99 5.34 18.98 5 20 C3 17 3 17 3.5 13.6875 C4.03593405 9.73498635 3.50734219 7.63535469 2 4 C1.34 4 0.68 4 0 4 C0 2.68 0 1.36 0 0 Z " fill="#E06935" transform="translate(196,138)"/>
<path d="M0 0 C0.66 0 1.32 0 2 0 C1.37666027 2.95296424 0.43098208 5.27546792 -1.06640625 7.890625 C-1.46923828 8.59960938 -1.87207031 9.30859375 -2.28710938 10.0390625 C-2.70798828 10.76867187 -3.12886719 11.49828125 -3.5625 12.25 C-3.98724609 12.99507812 -4.41199219 13.74015625 -4.84960938 14.5078125 C-5.89546042 16.34098961 -6.94716192 18.17082677 -8 20 C-8.33 20 -8.66 20 -9 20 C-9.1875 17.6875 -9.1875 17.6875 -9 15 C-8 14 -7 13 -6 12 C-5.01371583 9.96922316 -5.01371583 9.96922316 -4.3125 7.8125 C-4.06113281 7.09707031 -3.80976563 6.38164063 -3.55078125 5.64453125 C-3.36902344 5.10183594 -3.18726563 4.55914062 -3 4 C-2.34 4 -1.68 4 -1 4 C-0.67 2.68 -0.34 1.36 0 0 Z " fill="#380B05" transform="translate(279,108)"/>
<path d="M0 0 C2.53833449 1.26916725 2.89400901 2.41624809 4.125 4.9375 C4.47820312 5.64777344 4.83140625 6.35804687 5.1953125 7.08984375 C6 9 6 9 6 11 C3 12 3 12 0 11 C-1.05404945 7.01803543 -0.84098656 4.01804691 0 0 Z " fill="#ED662E" transform="translate(114,100)"/>
<path d="M0 0 C2.57933891 2.57933891 3.97362706 4.43841328 5.6875 7.5625 C6.12449219 8.34753906 6.56148437 9.13257813 7.01171875 9.94140625 C8 12 8 12 8 14 C7.34 14 6.68 14 6 14 C5.34 12.68 4.68 11.36 4 10 C2.68 10 1.36 10 0 10 C0 6.7 0 3.4 0 0 Z " fill="#290D05" transform="translate(172,166)"/>
<path d="M0 0 C3.12971397 2.87906588 5.13739079 5.68601769 7.125 9.4375 C7.62257812 10.36433594 8.12015625 11.29117187 8.6328125 12.24609375 C9.89714723 14.79282513 10.98789074 17.34441809 12 20 C11.01 20 10.02 20 9 20 C8.731875 19.05125 8.46375 18.1025 8.1875 17.125 C7.25013412 13.74732727 7.25013412 13.74732727 4 12 C3.0859375 10.1953125 3.0859375 10.1953125 2.375 8.125 C2.13523438 7.44695312 1.89546875 6.76890625 1.6484375 6.0703125 C1.01899676 4.06065231 0.4868497 2.0484431 0 0 Z " fill="#350D06" transform="translate(218,246)"/>
<path d="M0 0 C2.67576692 1.00617682 3.7785108 1.54214546 5.046875 4.1640625 C5.27890625 4.97617188 5.5109375 5.78828125 5.75 6.625 C5.99234375 7.44226563 6.2346875 8.25953125 6.484375 9.1015625 C6.73960937 10.04128906 6.73960937 10.04128906 7 11 C7.66 11 8.32 11 9 11 C12.10096154 16.45769231 12.10096154 16.45769231 11.58984375 19.203125 C11.39519531 19.79609375 11.20054687 20.3890625 11 21 C9.34999614 18.06482399 7.70572568 15.12647526 6.0625 12.1875 C5.59392578 11.35412109 5.12535156 10.52074219 4.64257812 9.66210938 C3.9706543 8.45844727 3.9706543 8.45844727 3.28515625 7.23046875 C2.87144775 6.49207764 2.45773926 5.75368652 2.03149414 4.99291992 C1 3 1 3 0 0 Z " fill="#370F05" transform="translate(228,192)"/>
<path d="M0 0 C2.95814719 2.61227152 4.71876108 5.66570307 6.6875 9.0625 C7.31011719 10.12597656 7.93273437 11.18945312 8.57421875 12.28515625 C10 15 10 15 10 17 C9.01 16.67 8.02 16.34 7 16 C6.67 14.35 6.34 12.7 6 11 C5.01 10.67 4.02 10.34 3 10 C2.67 9.01 2.34 8.02 2 7 C1.34 6.67 0.68 6.34 0 6 C0 4.02 0 2.04 0 0 Z " fill="#DB673A" transform="translate(208,159)"/>
<path d="M0 0 C0.66 0.33 1.32 0.66 2 1 C0.71481447 3.31632275 -0.57771266 5.62796942 -1.875 7.9375 C-2.23980469 8.59685547 -2.60460937 9.25621094 -2.98046875 9.93554688 C-5.7734375 14.88671875 -5.7734375 14.88671875 -8 16 C-7.67 14.02 -7.34 12.04 -7 10 C-6.34 10 -5.68 10 -5 10 C-4.896875 9.2575 -4.79375 8.515 -4.6875 7.75 C-3.85759053 4.43036212 -2.39710262 2.39710262 0 0 Z " fill="#DC6A36" transform="translate(248,128)"/>
<path d="M0 0 C10 11.53846154 10 11.53846154 10 17 C9.34 17 8.68 17 8 17 C8 16.34 8 15.68 8 15 C7.01 15 6.02 15 5 15 C4.731875 13.9275 4.46375 12.855 4.1875 11.75 C3.11059366 8.34924314 2.08378873 6.74681242 0 4 C0 2.68 0 1.36 0 0 Z " fill="#2F0D03" transform="translate(90,128)"/>
<path d="M0 0 C2.0625 0.4375 2.0625 0.4375 4 1 C3.38461538 7.52307692 3.38461538 7.52307692 1.4375 9.9375 C0.963125 10.288125 0.48875 10.63875 0 11 C0 9.35 0 7.7 0 6 C-0.99 5.67 -1.98 5.34 -3 5 C-1.125 1.125 -1.125 1.125 0 0 Z " fill="#F76427" transform="translate(312,113)"/>
<path d="M0 0 C0.66 0 1.32 0 2 0 C6.60332195 4.75676602 9.71290791 10.841987 10.3125 17.4375 C10 20 10 20 9 22 C8.34 22 7.68 22 7 22 C7.24621094 20.99710938 7.49242187 19.99421875 7.74609375 18.9609375 C8.06689508 13.9564367 6.70080974 11.71547031 4.0625 7.625 C3.30221334 6.38874089 2.54303579 5.15179875 1.78515625 3.9140625 C0.90150391 2.47160156 0.90150391 2.47160156 0 1 C0 0.67 0 0.34 0 0 Z " fill="#310E02" transform="translate(241,215)"/>
<path d="M0 0 C3.67758005 3.28355362 5.81389118 6.62778237 8 11 C7.67 11.66 7.34 12.32 7 13 C6.34 12.67 5.68 12.34 5 12 C5 11.01 5 10.02 5 9 C4.34 9 3.68 9 3 9 C2.34 8.34 1.68 7.68 1 7 C0.34 7 -0.32 7 -1 7 C-0.67 4.69 -0.34 2.38 0 0 Z " fill="#2E0C06" transform="translate(162,253)"/>
<path d="M0 0 C0.99 0.33 1.98 0.66 3 1 C3 1.66 3 2.32 3 3 C3.66 3 4.32 3 5 3 C7.56616632 6.84924948 7.55097676 9.4349304 8 14 C4.084859 10.64416485 1.9204226 6.71933638 0 2 C0 1.34 0 0.68 0 0 Z " fill="#E3663E" transform="translate(158,243)"/>
<path d="M0 0 C3.62666955 1.20888985 3.80287066 1.96453165 5.5 5.25 C6.87555886 7.88023527 8.2253721 10.33805816 9.875 12.8125 C11.2347555 15.45646904 10.84040922 16.25427947 10 19 C8.51762714 16.39761208 7.03899869 13.79321772 5.5625 11.1875 C4.93118164 10.08051758 4.93118164 10.08051758 4.28710938 8.95117188 C3.88427734 8.23896484 3.48144531 7.52675781 3.06640625 6.79296875 C2.69459229 6.1383667 2.32277832 5.48376465 1.93969727 4.80932617 C1 3 1 3 0 0 Z " fill="#360B04" transform="translate(179,211)"/>
<path d="M0 0 C0.66 0 1.32 0 2 0 C1.70996094 0.5671875 1.41992188 1.134375 1.12109375 1.71875 C0.02337998 3.9524254 -0.96151181 6.21093532 -1.9375 8.5 C-3.32449021 11.62975114 -4.60502035 14.49615764 -7 17 C-7.66 17 -8.32 17 -9 17 C-7.5143761 12.99624358 -5.63136615 9.38578153 -3.5 5.6875 C-2.58734375 4.08455078 -2.58734375 4.08455078 -1.65625 2.44921875 C-1.1096875 1.64097656 -0.563125 0.83273438 0 0 Z " fill="#350E05" transform="translate(300,145)"/>
<path d="M0 0 C4.04191465 4.49101628 6.43674441 9.58984989 9 15 C7.68 14.67 6.36 14.34 5 14 C5 13.01 5 12.02 5 11 C4.34 11 3.68 11 3 11 C1.72746564 7.35206816 0.67170806 3.8063457 0 0 Z " fill="#290C05" transform="translate(81,112)"/>
<path d="M0 0 C1.32 0.33 2.64 0.66 4 1 C-0.24429722 5.03725833 -2.89822307 6.88700413 -9 7 C-11.4375 6.0625 -11.4375 6.0625 -13 5 C-13 4.34 -13 3.68 -13 3 C-11.906875 3.37125 -10.81375 3.7425 -9.6875 4.125 C-7.8621875 4.558125 -7.8621875 4.558125 -6 5 C-5.01 4.34 -4.02 3.68 -3 3 C-2.01 3 -1.02 3 0 3 C0 2.01 0 1.02 0 0 Z " fill="#DA6B3F" transform="translate(207,300)"/>
<path d="M0 0 C3 1 3 1 4.28125 3.109375 C4.6834375 3.98078125 5.085625 4.8521875 5.5 5.75 C6.85210862 8.62220649 8.16352536 11.25618973 9.875 13.9375 C10.24625 14.618125 10.6175 15.29875 11 16 C10.67 16.99 10.34 17.98 10 19 C8.32626249 16.21251481 6.66223733 13.41935573 5 10.625 C4.28457031 9.43390625 4.28457031 9.43390625 3.5546875 8.21875 C3.10351562 7.45820313 2.65234375 6.69765625 2.1875 5.9140625 C1.76855469 5.2123291 1.34960938 4.5105957 0.91796875 3.78759766 C0 2 0 2 0 0 Z " fill="#3B1004" transform="translate(168,192)"/>
<path d="M0 0 C3.48331435 3.01887244 4.79157144 5.56909529 6 10 C5.34 10 4.68 10 4 10 C3.67 9.34 3.34 8.68 3 8 C2.34 8 1.68 8 1 8 C0.67 8.66 0.34 9.32 0 10 C-0.66 10 -1.32 10 -2 10 C-2 8.35 -2 6.7 -2 5 C-1.34 5 -0.68 5 0 5 C0 3.35 0 1.7 0 0 Z " fill="#280F05" transform="translate(180,180)"/>
<path d="M0 0 C0.66 0 1.32 0 2 0 C2 0.66 2 1.32 2 2 C2.66 2 3.32 2 4 2 C4.33 3.32 4.66 4.64 5 6 C5.66 6 6.32 6 7 6 C8.85776765 9.13498292 9.20140476 11.37471432 9 15 C5.96343083 12.4011345 4.53836261 9.37928272 2.8125 5.8125 C2.28269531 4.72582031 1.75289062 3.63914063 1.20703125 2.51953125 C0.80871094 1.68808594 0.41039062 0.85664063 0 0 Z " fill="#D56835" transform="translate(216,241)"/>
<path d="M0 0 C1.98 0.99 1.98 0.99 4 2 C4 3.32 4 4.64 4 6 C4.99 6 5.98 6 7 6 C7.33 4.35 7.66 2.7 8 1 C8.66 1 9.32 1 10 1 C8.88243734 4.86848614 7.97126708 7.28922757 5 10 C4.16121545 8.71186658 3.32913217 7.41936744 2.5 6.125 C2.0359375 5.40570313 1.571875 4.68640625 1.09375 3.9453125 C0 2 0 2 0 0 Z " fill="#CB693D" transform="translate(255,204)"/>
<path d="M0 0 C0.66 0.33 1.32 0.66 2 1 C1.82316211 7.94490614 0.11844576 12.42262143 -4 18 C-5.27514492 14.17456525 -4.52740413 12.66576992 -3 9 C-2.195625 8.2575 -2.195625 8.2575 -1.375 7.5 C0.33968413 5.94626678 0.33968413 5.94626678 0.1875 2.8125 C0.125625 1.884375 0.06375 0.95625 0 0 Z " fill="#DE6839" transform="translate(320,101)"/>
<path d="M0 0 C0.66 0 1.32 0 2 0 C2 2.66666667 2 5.33333333 2 8 C-0.49092811 9.24546405 -1.41080733 8.7767578 -4 8 C-2.87548273 5.0280615 -1.77706209 2.66559313 0 0 Z " fill="#E36A36" transform="translate(229,95)"/>
<path d="M0 0 C2.27034075 2.94050157 4.30412051 5.96058433 6.25 9.125 C7.06210938 10.42824219 7.06210938 10.42824219 7.890625 11.7578125 C8.25671875 12.49773437 8.6228125 13.23765625 9 14 C8.67 14.66 8.34 15.32 8 16 C4.12856412 12.68162639 1.74592177 8.75485077 0 4 C0 2.68 0 1.36 0 0 Z " fill="#D9693E" transform="translate(199,247)"/>
<path d="M0 0 C2 0 2 0 3.625 1.5 C4.07875 1.995 4.5325 2.49 5 3 C5.33 2.34 5.66 1.68 6 1 C6.66 1 7.32 1 8 1 C8.33 2.65 8.66 4.3 9 6 C7.35 6.66 5.7 7.32 4 8 C2.68 5.36 1.36 2.72 0 0 Z " fill="#EE6632" transform="translate(102,147)"/>
<path d="M0 0 C2.49489559 2.92879047 3.90933677 5.10148118 4 9 C2.87363036 11.52643659 1.51191234 13.6634082 0 16 C-1.125 12.25 -1.125 12.25 0 10 C0.66 10 1.32 10 2 10 C1.505 8.63875 1.505 8.63875 1 7.25 C0 4 0 4 0 0 Z " fill="#D2663C" transform="translate(246,224)"/>
<path d="M0 0 C4.22183809 1.40727936 4.84508756 3.83478859 6.859375 7.6328125 C8.17233374 10.35765154 9.17905935 13.08939223 10 16 C6.57590889 12.93320535 4.72657315 9.88283477 2.75 5.75 C2.22921875 4.67234375 1.7084375 3.5946875 1.171875 2.484375 C0.78515625 1.66453125 0.3984375 0.8446875 0 0 Z " fill="#D06A41" transform="translate(174,168)"/>
<path d="M0 0 C2.97069541 2.54631035 4.4775751 5.42230149 6 9 C5.67 9.66 5.34 10.32 5 11 C4.566875 10.505 4.13375 10.01 3.6875 9.5 C2.00259517 7.66781808 2.00259517 7.66781808 -1 8 C-0.67 5.36 -0.34 2.72 0 0 Z " fill="#E0683B" transform="translate(148,159)"/>
<path d="M0 0 C8 9.42857143 8 9.42857143 8 14 C4.2038649 12.73462163 3.84505245 11.44944589 2 8 C1.608125 7.319375 1.21625 6.63875 0.8125 5.9375 C0 4 0 4 0 0 Z " fill="#2C0D01" transform="translate(186,190)"/>
<path d="M0 0 C1.32 0.33 2.64 0.66 4 1 C0.375 7.875 0.375 7.875 -3 9 C-3.33 7.68 -3.66 6.36 -4 5 C-3.01 4.34 -2.02 3.68 -1 3 C-0.67 2.01 -0.34 1.02 0 0 Z " fill="#EB683A" transform="translate(288,159)"/>
<path d="M0 0 C0.99 0.33 1.98 0.66 3 1 C3 1.66 3 2.32 3 3 C3.66 3 4.32 3 5 3 C5.50615298 4.26839526 6.00469099 5.53983102 6.5 6.8125 C6.91765625 7.87404297 6.91765625 7.87404297 7.34375 8.95703125 C8 11 8 11 8 14 C0 3.89473684 0 3.89473684 0 0 Z " fill="#D66537" transform="translate(128,192)"/>
<path d="M0 0 C3.09592835 3.5087188 4.74194623 6.49197399 6 11 C5.01 10.67 4.02 10.34 3 10 C2.67 9.01 2.34 8.02 2 7 C0.68 7 -0.64 7 -2 7 C-1.34 4.69 -0.68 2.38 0 0 Z " fill="#290D07" transform="translate(148,228)"/>
<path d="M0 0 C0.66 0 1.32 0 2 0 C2 0.66 2 1.32 2 2 C2.66 2 3.32 2 4 2 C5.01866229 3.65532623 6.01810813 5.32260138 7 7 C7.66 7.33 8.32 7.66 9 8 C8.67 9.65 8.34 11.3 8 13 C4.48901975 8.98745115 2.23462006 4.79016959 0 0 Z " fill="#330D05" transform="translate(118,106)"/>
<path d="M0 0 C0.66 0.33 1.32 0.66 2 1 C0.02 4.63 -1.96 8.26 -4 12 C-5.15941038 8.52176885 -4.70820884 6.54104422 -4 3 C-3.01 2.67 -2.02 2.34 -1 2 C-0.67 1.34 -0.34 0.68 0 0 Z " fill="#D46433" transform="translate(262,104)"/>
<path d="M0 0 C0.99 0 1.98 0 3 0 C1.23570801 4.97209562 -1.3939166 9.43438061 -4 14 C-5.06528748 11.26980214 -5.07998186 10.20701188 -4.00390625 7.421875 C-3.52824219 6.54015625 -3.05257812 5.6584375 -2.5625 4.75 C-2.08941406 3.85796875 -1.61632812 2.9659375 -1.12890625 2.046875 C-0.75636719 1.37140625 -0.38382813 0.6959375 0 0 Z " fill="#340A03" transform="translate(227,93)"/>
<path d="M0 0 C0.66 0.66 1.32 1.32 2 2 C4.57061311 2.64767793 4.57061311 2.64767793 7 3 C6.74438677 5.3431213 6.40729228 7.67843403 6 10 C5.01 10.495 5.01 10.495 4 11 C3.32591692 9.73308493 2.66099503 8.46129251 2 7.1875 C1.62875 6.47980469 1.2575 5.77210937 0.875 5.04296875 C0 3 0 3 0 0 Z " fill="#280B09" transform="translate(112,93)"/>
<path d="M0 0 C0.33 0.66 0.66 1.32 1 2 C1.99 2.66 2.98 3.32 4 4 C2.68 6.31 1.36 8.62 0 11 C-0.33 10.01 -0.66 9.02 -1 8 C-0.67 7.34 -0.34 6.68 0 6 C-0.66 5.67 -1.32 5.34 -2 5 C-1.34 3.35 -0.68 1.7 0 0 Z " fill="#E66431" transform="translate(213,286)"/>
<path d="M0 0 C3.33576209 2.99068325 5.3746531 5.80831589 7 10 C6.6875 12.875 6.6875 12.875 6 15 C5.67 15 5.34 15 5 15 C4.80664062 14.33613281 4.61328125 13.67226563 4.4140625 12.98828125 C2.47248648 6.40210691 2.47248648 6.40210691 0 0 Z " fill="#D36C3C" transform="translate(213,272)"/>
<path d="M0 0 C0.99 0 1.98 0 3 0 C1.23570801 4.97209562 -1.3939166 9.43438061 -4 14 C-4.6171875 12.1875 -4.6171875 12.1875 -5 10 C-3.7260411 7.96166576 -2.38938077 5.96147874 -1 4 C-0.23060319 1.77397385 -0.23060319 1.77397385 0 0 Z " fill="#330903" transform="translate(287,93)"/>
<path d="M0 0 C3.67882073 3.28466137 5.75150101 6.66360908 8 11 C8 11.66 8 12.32 8 13 C5 12 5 12 3.61328125 9.78515625 C3.18402344 8.88667969 2.75476563 7.98820313 2.3125 7.0625 C1.87550781 6.16660156 1.43851563 5.27070313 0.98828125 4.34765625 C0 2 0 2 0 0 Z " fill="#3B0F02" transform="translate(154,239)"/>
<path d="M0 0 C4.42857143 5.14285714 4.42857143 5.14285714 5 9 C4.01 9 3.02 9 2 9 C1.34 8.01 0.68 7.02 0 6 C-0.66 5.67 -1.32 5.34 -2 5 C-1.34 3.35 -0.68 1.7 0 0 Z " fill="#E26B36" transform="translate(170,197)"/>
<path d="M0 0 C0.66 0 1.32 0 2 0 C2 0.66 2 1.32 2 2 C2.66 2.33 3.32 2.66 4 3 C5.6875 5.3125 5.6875 5.3125 7 8 C6.58203125 10.16796875 6.58203125 10.16796875 6 12 C4.99466333 10.37829621 3.99588093 8.75252763 3 7.125 C2.443125 6.22007812 1.88625 5.31515625 1.3125 4.3828125 C0 2 0 2 0 0 Z " fill="#350A05" transform="translate(204,150)"/>
<path d="M0 0 C0.66 0 1.32 0 2 0 C6.06153846 6.4 6.06153846 6.4 5.75 9.4375 C5.5025 9.953125 5.255 10.46875 5 11 C1.19015156 8.22920113 0.93159248 4.37131855 0 0 Z " fill="#D7643E" transform="translate(137,141)"/>
<path d="M0 0 C0.6875 1.625 0.6875 1.625 1 4 C-0.47640245 7.61718599 -2.01906878 10.4449161 -5 13 C-5.66 12.67 -6.32 12.34 -7 12 C-6.57847656 11.30132812 -6.15695312 10.60265625 -5.72265625 9.8828125 C-5.17480469 8.97273437 -4.62695312 8.06265625 -4.0625 7.125 C-3.51722656 6.22007812 -2.97195313 5.31515625 -2.41015625 4.3828125 C-1.56101983 2.94798364 -0.74562276 1.49124552 0 0 Z " fill="#370F05" transform="translate(313,122)"/>
<path d="M0 0 C3.97497544 3.40712181 5.86793788 7.32760855 8 12 C7.01 12.495 7.01 12.495 6 13 C5.01 11.02 4.02 9.04 3 7 C2.34 7 1.68 7 1 7 C0.67 4.69 0.34 2.38 0 0 Z " fill="#D0643D" transform="translate(120,111)"/>
<path d="M0 0 C3.2542015 2.83430453 4.5206753 4.68607774 5 9 C2.525 8.01 2.525 8.01 0 7 C0 4.69 0 2.38 0 0 Z " fill="#300D08" transform="translate(183,289)"/>
<path d="M0 0 C2.97246802 2.54782974 4.41535288 5.45340883 6 9 C6 9.66 6 10.32 6 11 C5.34 11 4.68 11 4 11 C0 4.5 0 4.5 0 0 Z " fill="#360D04" transform="translate(205,223)"/>
<path d="M0 0 C1.0169313 2.65498232 1.13022151 3.69155375 0.00390625 6.359375 C-0.47175781 7.14828125 -0.94742187 7.9371875 -1.4375 8.75 C-1.91058594 9.54921875 -2.38367188 10.3484375 -2.87109375 11.171875 C-3.24363281 11.77515625 -3.61617188 12.3784375 -4 13 C-4.66 13 -5.32 13 -6 13 C-4.31326082 8.50202887 -2.18326108 4.27113698 0 0 Z " fill="#330A04" transform="translate(321,108)"/>
<path d="M0 0 C0.99 0 1.98 0 3 0 C2.67 2.64 2.34 5.28 2 8 C-0.2477975 5.94766315 -1.0022242 4.99332739 -2 2 C-1.34 2 -0.68 2 0 2 C0 1.34 0 0.68 0 0 Z " fill="#F6672E" transform="translate(114,160)"/>
<path d="M0 0 C-0.66 2.64 -1.32 5.28 -2 8 C-3.89213369 5.61426621 -5.02391783 3.92824652 -6 1 C-3.92446352 0.4465236 -2.15634036 0 0 0 Z " fill="#2C0E04" transform="translate(156,160)"/>
<path d="M0 0 C1 3 1 3 0.00390625 5.26171875 C-0.47175781 6.06222656 -0.94742188 6.86273438 -1.4375 7.6875 C-2.14712891 8.89986328 -2.14712891 8.89986328 -2.87109375 10.13671875 C-3.24363281 10.75160156 -3.61617187 11.36648437 -4 12 C-4.66 12 -5.32 12 -6 12 C-4.43358249 7.69235185 -2.31663844 3.93828536 0 0 Z " fill="#380D04" transform="translate(237,150)"/>
<path d="M0 0 C1 3 1 3 0.29296875 4.7890625 C-0.07183594 5.39492187 -0.43664062 6.00078125 -0.8125 6.625 C-1.16957031 7.23601562 -1.52664062 7.84703125 -1.89453125 8.4765625 C-3 10 -3 10 -5 11 C-3.77472971 6.94718288 -2.30119506 3.55639236 0 0 Z " fill="#370B04" transform="translate(244,138)"/>
<path d="M0 0 C4.42857143 5.14285714 4.42857143 5.14285714 5 9 C4.01 9 3.02 9 2 9 C2 8.01 2 7.02 2 6 C1.34 6 0.68 6 0 6 C0 4.02 0 2.04 0 0 Z " fill="#D86735" transform="translate(191,129)"/>
<path d="M0 0 C0.33 0 0.66 0 1 0 C0.50769231 6.4 0.50769231 6.4 -2.0625 9.4375 C-2.701875 9.953125 -3.34125 10.46875 -4 11 C-3.5247412 9.35303396 -3.04468109 7.70745272 -2.5625 6.0625 C-2.29566406 5.14597656 -2.02882813 4.22945313 -1.75390625 3.28515625 C-1 1 -1 1 0 0 Z " fill="#E66A33" transform="translate(277,116)"/>
<path d="M0 0 C2.72426311 2.35277269 3.8141763 4.62496331 5 8 C2.4636387 6.98545548 1.20648539 6.3146444 -0.3125 4 C-0.539375 3.34 -0.76625 2.68 -1 2 C-0.67 1.34 -0.34 0.68 0 0 Z " fill="#2D0907" transform="translate(255,206)"/>
<path d="M0 0 C3 1 3 1 4.203125 2.77734375 C4.54859375 3.49019531 4.8940625 4.20304688 5.25 4.9375 C5.78367188 6.00291016 5.78367188 6.00291016 6.328125 7.08984375 C6.54984375 7.72019531 6.7715625 8.35054687 7 9 C6.67 9.66 6.34 10.32 6 11 C4.99735282 9.35577799 3.99794896 7.70957779 3 6.0625 C2.443125 5.14597656 1.88625 4.22945312 1.3125 3.28515625 C0 1 0 1 0 0 Z " fill="#D36A3E" transform="translate(136,206)"/>
<path d="M0 0 C3.48331435 3.01887244 4.79157144 5.56909529 6 10 C5.01 10 4.02 10 3 10 C2.01 6.7 1.02 3.4 0 0 Z " fill="#350902" transform="translate(114,170)"/>
<path d="M0 0 C0.33 1.32 0.66 2.64 1 4 C0.34 4 -0.32 4 -1 4 C-1.33 5.32 -1.66 6.64 -2 8 C-2.99 7.67 -3.98 7.34 -5 7 C-3.35 4.69 -1.7 2.38 0 0 Z " fill="#2C0D07" transform="translate(214,295)"/>
<path d="M0 0 C1 4 1 4 -0.9375 7.25 C-1.618125 8.1575 -2.29875 9.065 -3 10 C-3.66 9.67 -4.32 9.34 -5 9 C-3.35 6.03 -1.7 3.06 0 0 Z " fill="#3A1002" transform="translate(290,162)"/>
<path d="M0 0 C0.33 0.66 0.66 1.32 1 2 C0.34 2 -0.32 2 -1 2 C-0.67 4.64 -0.34 7.28 0 10 C-0.99 9.34 -1.98 8.68 -3 8 C-2.74438677 5.6568787 -2.40729228 3.32156597 -2 1 C-1.34 0.67 -0.68 0.34 0 0 Z " fill="#160903" transform="translate(240,148)"/>
<path d="M0 0 C3 1 3 1 4.75 3.875 C6 7 6 7 5 10 C4.16121545 8.71186658 3.32913217 7.41936744 2.5 6.125 C2.0359375 5.40570313 1.571875 4.68640625 1.09375 3.9453125 C0 2 0 2 0 0 Z " fill="#380F03" transform="translate(131,128)"/>
<path d="M0 0 C5.53846154 -0.36923077 5.53846154 -0.36923077 7.875 1.5 C8.24625 1.995 8.6175 2.49 9 3 C8.67 3.99 8.34 4.98 8 6 C7.236875 5.38125 6.47375 4.7625 5.6875 4.125 C3.00374191 1.94402948 3.00374191 1.94402948 0 0 Z " fill="#330903" transform="translate(312,92)"/>
<path d="M0 0 C4.42857143 5.14285714 4.42857143 5.14285714 5 9 C4.01 9 3.02 9 2 9 C0.50178941 5.62902617 0 3.79557881 0 0 Z " fill="#3D0F04" transform="translate(143,219)"/>
<path d="M0 0 C2.79872437 2.52788007 4.45773019 4.20411134 5 8 C2 7 2 7 0 4 C0 2.68 0 1.36 0 0 Z " fill="#E06B44" transform="translate(143,151)"/>
<path d="M0 0 C3.42054006 1.14018002 4.2426201 1.92458518 6 5 C5.67 6.32 5.34 7.64 5 9 C3.35 6.03 1.7 3.06 0 0 Z " fill="#360902" transform="translate(144,151)"/>
<path d="M0 0 C2.32472205 2.85306797 3.7508258 5.54074837 5 9 C3.68 8.67 2.36 8.34 1 8 C0.67 5.36 0.34 2.72 0 0 Z " fill="#DD6A35" transform="translate(128,124)"/>
<path d="M0 0 C2.51083114 1.25541557 2.87125446 2.50063488 4 5 C3.01 5.99 2.02 6.98 1 8 C1 6.35 1 4.7 1 3 C0.34 3 -0.32 3 -1 3 C-0.67 2.01 -0.34 1.02 0 0 Z " fill="#EB6833" transform="translate(311,116)"/>
<path d="M0 0 C2.09350689 3.4019487 2.17942163 6.05272412 2 10 C1.34 10 0.68 10 0 10 C-2.21538462 4.58461538 -2.21538462 4.58461538 -1.125 1.625 C-0.75375 1.08875 -0.3825 0.5525 0 0 Z " fill="#F86731" transform="translate(174,158)"/>
<path d="M0 0 C2.74277578 3.19990508 4.6302836 6.00499382 6 10 C2.46413986 6.82679218 0.41421969 4.83256305 0 0 Z " fill="#440F06" transform="translate(81,112)"/>
</svg>
